<svg width="24" height="25" viewBox="0 0 24 25" fill="none" xmlns="http://www.w3.org/2000/svg">
<path d="M12 14.8071L21 9.80713L12 4.80713L3 9.80713L12 14.8071Z" stroke="#fff"/>
<path d="M12.0001 14.807L18.1601 11.385C18.9706 13.4431 19.2006 15.6842 18.8251 17.864C16.2886 18.1102 13.8973 19.1606 12.0001 20.862C10.1031 19.1608 7.71216 18.1104 5.17608 17.864C4.80028 15.6842 5.03031 13.443 5.84108 11.385L12.0001 14.807Z" stroke="#fff"/>
<path d="M12 14.8071L21 9.80713L12 4.80713L3 9.80713L12 14.8071ZM12 14.8071L18.16 11.3851C18.9705 13.4432 19.2005 15.6843 18.825 17.8641C16.2886 18.1103 13.8972 19.1608 12 20.8621C10.1031 19.1609 7.71208 18.1105 5.176 17.8641C4.8002 15.6843 5.03023 13.4432 5.841 11.3851L12 14.8071ZM8 20.8071V13.3071L12 11.0851" stroke="#fff" stroke-width="2" stroke-linecap="round" stroke-linejoin="round"/>
</svg>
