<svg width="20" height="20" viewBox="0 0 20 20" fill="none" xmlns="http://www.w3.org/2000/svg">
    <path opacity=".5" d="M10.662 1.667H8.996c-1.572 0-2.358 0-2.845.488-.488.488-.488 1.273-.488 2.845v2.917h8.333V5c0-1.572 0-2.357-.489-2.845-.488-.488-1.273-.488-2.845-.488z" fill="#14AE5C"/>
    <path fill-rule="evenodd" clip-rule="evenodd" d="M11.025 4.82a2.5 2.5 0 0 0-2.393 0L4.637 6.996a2.5 2.5 0 0 0-1.304 2.196v4.114a2.5 2.5 0 0 0 1.304 2.195l3.995 2.179a2.5 2.5 0 0 0 2.393 0l3.996-2.179a2.5 2.5 0 0 0 1.303-2.195V9.192a2.5 2.5 0 0 0-1.303-2.195l-3.996-2.178zM9.828 8.75c-.236 0-.395.283-.711.852l-.082.147c-.09.162-.135.242-.205.295-.07.053-.158.073-.333.113l-.158.036c-.616.14-.923.209-.996.444-.073.236.136.48.555.97l.109.127c.12.14.179.209.205.295.027.087.019.18 0 .365l-.016.17c-.064.653-.095.981.097 1.126.191.145.479.013 1.055-.252l.149-.069c.163-.075.245-.112.331-.112.087 0 .17.037.333.112l.149.069c.575.265.863.397 1.055.252.192-.145.16-.473.097-1.127l-.017-.169c-.018-.186-.027-.278 0-.365.027-.086.086-.156.205-.295l.108-.127c.42-.49.63-.734.556-.97-.073-.235-.38-.305-.995-.444l-.159-.036c-.175-.04-.262-.059-.332-.113-.07-.053-.115-.133-.205-.295l-.082-.147c-.317-.568-.475-.852-.713-.852z" fill="#14AE5C"/>
</svg>
