<svg width="209" height="209" fill="none" xmlns="http://www.w3.org/2000/svg"><g clip-path="url(#a)" stroke="#fff" stroke-width="4.135"><path d="M108.13 10.302a98.414 98.414 0 0 1 79.616 40.566 98.41 98.41 0 0 1 13.978 88.255l-56.156-18.246a39.36 39.36 0 0 0-19.567-47.238 39.365 39.365 0 0 0-17.871-4.29V10.301Z" fill="#2F80ED"/><path d="M201.724 139.123a98.411 98.411 0 0 1-151.438 49.205l34.706-47.769a39.371 39.371 0 0 0 35.302 5.591 39.369 39.369 0 0 0 25.274-25.273l56.156 18.246Z" fill="#66C586"/><path d="M51.684 189.326A98.414 98.414 0 0 1 12.603 85.065l57.316 14.188a39.364 39.364 0 0 0 15.633 41.705l-33.868 48.368Z" fill="#F44F4F"/><path d="M10.094 100.135a98.412 98.412 0 0 1 34.779-66.81l37.954 45.233a39.365 39.365 0 0 0-13.911 26.724l-58.822-5.147Z" fill="#F8973E"/><path d="M44.807 23.134A106.791 106.791 0 0 1 102.77 2.47l3.215 63.994A42.717 42.717 0 0 0 82.8 74.73L44.807 23.134Z" fill="#F6CD52"/></g><defs><clipPath id="a"><path fill="#fff" d="M.622.792h207.416v207.416H.622z"/></clipPath></defs></svg>