<svg width="24.000000" height="24.000000" viewBox="0 0 24 24" fill="none" xmlns="http://www.w3.org/2000/svg" xmlns:xlink="http://www.w3.org/1999/xlink">
	<desc>
			Created with Pixso.
	</desc>
	<defs>
		<clipPath id="clip2_28124">
			<rect id="users" width="24.000000" height="24.000000" fill="white" fill-opacity="0"/>
		</clipPath>
	</defs>
	<rect id="users" width="24.000000" height="24.000000" fill="#FFFFFF" fill-opacity="0"/>
	<g clip-path="url(#clip2_28124)">
		<path id="Vector" d="M12 4.354C12.5374 3.74471 13.2477 3.31351 14.0362 3.11779C14.8247 2.92208 15.6542 2.97112 16.4142 3.2584C17.1741 3.54568 17.8286 4.05757 18.2905 4.72596C18.7524 5.39435 18.9998 6.18755 18.9998 7C18.9998 7.81245 18.7524 8.60565 18.2905 9.27404C17.8286 9.94243 17.1741 10.4543 16.4142 10.7416C15.6542 11.0289 14.8247 11.0779 14.0362 10.8822C13.2477 10.6865 12.5374 10.2553 12 9.646M12 14.803C12.9122 14.2764 13.9469 13.9991 15.0002 13.9992C16.0535 13.9992 17.0882 14.2765 18.0004 14.8032C18.9125 15.3299 19.6699 16.0875 20.1965 16.9997C20.723 17.9119 21.0002 18.9467 21 20L21 21L15 21L3 21L3 20C3 18.4087 3.63214 16.8826 4.75735 15.7574C5.88258 14.6321 7.40871 14 9 14C10.5913 14 12.1174 14.6321 13.2426 15.7574C14.3679 16.8826 15 18.4087 15 20L15 21M11.8284 9.82843C11.0783 10.5786 10.0609 11 9 11C7.93913 11 6.92172 10.5786 6.17157 9.82843C5.42143 9.07829 5 8.06087 5 7C5 5.93913 5.42143 4.92172 6.17157 4.17157C6.92172 3.42142 7.93913 3 9 3C10.0609 3 11.0783 3.42142 11.8284 4.17157C12.5786 4.92172 13 5.93913 13 7C13 8.06087 12.5786 9.07829 11.8284 9.82843Z" stroke="#939393" stroke-opacity="1.000000" stroke-width="1.000000" stroke-linejoin="round"/>
	</g>
</svg>
