<svg width="25" height="24" viewBox="0 0 25 24" fill="none" xmlns="http://www.w3.org/2000/svg">
<rect x="1.5" y="0.5" width="23" height="23" rx="3.5" fill="#EBEEF4" stroke="#939393"/>
<path d="M10.304 15.919L6.38501 12C6.19748 11.8125 5.94317 11.7072 5.67801 11.7072C5.41284 11.7072 5.15854 11.8125 4.97101 12C4.78354 12.1875 4.67822 12.4418 4.67822 12.707C4.67822 12.9722 4.78354 13.2265 4.97101 13.414L8.89001 17.333C9.07574 17.5188 9.29625 17.6662 9.53896 17.7667C9.78166 17.8673 10.0418 17.9191 10.3045 17.9191C10.5672 17.9191 10.8274 17.8673 11.0701 17.7667C11.3128 17.6662 11.5333 17.5188 11.719 17.333L20.971 8.08099C21.1585 7.89347 21.2638 7.63916 21.2638 7.37399C21.2638 7.10883 21.1585 6.85452 20.971 6.66699C20.7835 6.47952 20.5292 6.37421 20.264 6.37421C19.9988 6.37421 19.7445 6.47952 19.557 6.66699L10.304 15.919Z" fill="#2E2D33"/>
</svg>
