<svg width="449" height="328" fill="none" xmlns="http://www.w3.org/2000/svg"><path d="M46.302 319.103c0-.418.07-.774.209-1.067.139-.301.333-.546.583-.737.256-.191.56-.33.913-.418.352-.088.74-.132 1.166-.132h2.453v7.887H50.58v-3.157h-1.43l-2.178 3.157h-1.265l2.387-3.344c-.58-.125-1.023-.363-1.331-.715-.308-.359-.462-.851-.462-1.474Zm4.279 1.441v-2.849h-1.408c-.264 0-.506.026-.726.077-.213.044-.4.121-.561.231-.154.11-.275.257-.363.44a1.47 1.47 0 0 0-.132.66c0 .499.143.865.429 1.1.286.227.7.341 1.243.341h1.518Zm6.484 1.562h-2.761v2.53h-.968v-5.709h.968v2.354h2.76v-2.354h.969v5.709h-.968v-2.53Zm2.555-3.179h2.134c.69 0 1.21.121 1.562.363.352.235.528.605.528 1.111 0 .337-.088.609-.264.814-.169.198-.41.341-.726.429.814.132 1.221.583 1.221 1.353 0 .293-.059.546-.176.759a1.453 1.453 0 0 1-.484.506 2.158 2.158 0 0 1-.748.286 4.631 4.631 0 0 1-.935.088H59.62v-5.709Zm.968.825v1.551h1.078c.367 0 .66-.066.88-.198.227-.132.341-.323.341-.572 0-.301-.099-.506-.297-.616-.198-.11-.48-.165-.847-.165h-1.155Zm0 2.321v1.738h1.133c.206 0 .389-.011.55-.033.169-.029.312-.077.43-.143a.713.713 0 0 0 .285-.264.78.78 0 0 0 .1-.407c0-.33-.114-.561-.342-.693-.227-.132-.568-.198-1.023-.198h-1.133ZM74.94 320.687c0 .396.062.733.186 1.012.125.271.294.495.506.671.22.169.477.293.77.374.301.081.624.128.968.143v-4.389a4.066 4.066 0 0 0-.968.154c-.293.081-.55.205-.77.374a1.772 1.772 0 0 0-.506.66c-.124.271-.187.605-.187 1.001Zm5.906.022c0-.396-.062-.73-.187-1.001a1.703 1.703 0 0 0-.517-.671 2.008 2.008 0 0 0-.77-.385 4.292 4.292 0 0 0-.957-.143v4.389c.345-.015.664-.062.957-.143.301-.081.558-.205.77-.374.22-.176.393-.4.517-.671.125-.271.187-.605.187-1.001Zm-2.43-4.048v1.012c.498.015.96.088 1.385.22.433.125.807.312 1.122.561.316.249.561.561.737.935.184.367.275.796.275 1.287 0 .491-.091.924-.275 1.298a2.67 2.67 0 0 1-.737.946c-.315.249-.689.44-1.122.572a5.186 5.186 0 0 1-1.386.22v1.034H77.37v-1.034a5.008 5.008 0 0 1-1.397-.209 3.519 3.519 0 0 1-1.11-.561 2.697 2.697 0 0 1-.749-.924c-.176-.374-.264-.807-.264-1.298s.088-.924.264-1.298c.184-.374.433-.686.748-.935a3.272 3.272 0 0 1 1.111-.583 5.043 5.043 0 0 1 1.397-.231v-1.012h1.045Zm9.32 7.491a3.01 3.01 0 0 1-.297.187 3.44 3.44 0 0 1-.429.198c-.169.059-.36.106-.572.143a3.542 3.542 0 0 1-.715.066c-.96 0-1.69-.26-2.189-.781-.499-.521-.748-1.25-.748-2.189 0-.462.066-.876.198-1.243.14-.367.33-.675.572-.924.242-.257.528-.451.858-.583.33-.139.69-.209 1.078-.209.41 0 .777.07 1.1.209.323.139.587.345.792.616.213.271.356.609.429 1.012.08.396.08.858 0 1.386h-4.026c.037.616.22 1.078.55 1.386.33.301.821.451 1.474.451.44 0 .818-.062 1.133-.187.315-.125.58-.26.792-.407v.869Zm-2.266-4.477c-.418 0-.777.128-1.078.385-.3.257-.491.645-.572 1.166h3.069c.03-.528-.092-.917-.363-1.166-.271-.257-.623-.385-1.056-.385Zm3.642-.748h2.134c.69 0 1.21.121 1.562.363.352.235.528.605.528 1.111 0 .337-.088.609-.264.814-.169.198-.41.341-.726.429.814.132 1.22.583 1.22 1.353 0 .293-.058.546-.175.759a1.453 1.453 0 0 1-.484.506 2.158 2.158 0 0 1-.748.286 4.631 4.631 0 0 1-.935.088h-2.112v-5.709Zm.968.825v1.551h1.078c.367 0 .66-.066.88-.198.227-.132.34-.323.34-.572 0-.301-.098-.506-.296-.616-.198-.11-.48-.165-.847-.165H90.08Zm0 2.321v1.738h1.133c.205 0 .389-.011.55-.033.169-.029.312-.077.429-.143a.713.713 0 0 0 .286-.264.78.78 0 0 0 .099-.407c0-.33-.114-.561-.341-.693-.227-.132-.568-.198-1.023-.198H90.08Zm7.811 2.673c-.44 0-.821-.103-1.144-.308a2.24 2.24 0 0 1-.759-.847v2.992h-.968v-7.656h.847l.1 1.111c.19-.374.447-.671.77-.891.322-.22.722-.33 1.198-.33.33 0 .645.062.946.187.308.117.576.301.803.55a2.5 2.5 0 0 1 .55.924c.139.367.209.799.209 1.298 0 .506-.07.946-.209 1.32a2.746 2.746 0 0 1-.56.924 2.356 2.356 0 0 1-.815.55c-.308.117-.63.176-.968.176Zm-.143-.869c.506 0 .913-.172 1.221-.517.316-.352.473-.88.473-1.584 0-.689-.157-1.21-.473-1.562-.308-.359-.715-.539-1.22-.539-.25 0-.485.044-.705.132-.212.088-.4.22-.56.396a1.918 1.918 0 0 0-.375.649 2.925 2.925 0 0 0-.132.924c0 .352.044.66.132.924.096.264.22.484.374.66.161.176.349.308.561.396.22.081.455.121.704.121ZM110.679 322.282l2.563-5.533h1.342v7.887h-1.045v-6.347l-2.42 5.137-.517.011h-.462l.011-.011-2.387-5.225v6.435h-.979v-7.887h1.441l2.453 5.533Zm8.954 1.265a3.452 3.452 0 0 1-.253.418 1.923 1.923 0 0 1-.935.671c-.206.073-.448.11-.726.11-.514 0-.928-.143-1.243-.429-.316-.293-.473-.711-.473-1.254 0-.623.216-1.082.649-1.375.44-.293 1.063-.44 1.87-.44h1.067v-.473c0-.396-.103-.678-.308-.847-.206-.169-.558-.253-1.056-.253-.352 0-.686.059-1.001.176-.316.11-.598.238-.847.385v-.869c.205-.125.48-.246.825-.363a3.43 3.43 0 0 1 1.155-.187c.718 0 1.265.15 1.639.451.374.293.561.752.561 1.375v3.3c.007.081.011.165.011.253l.022.253c.007.073.014.136.022.187h-.88a5.068 5.068 0 0 1-.066-.429 6.417 6.417 0 0 1-.022-.495l-.011-.165Zm-1.705.33c.3 0 .557-.062.77-.187a1.92 1.92 0 0 0 .517-.429 1.91 1.91 0 0 0 .286-.484c.058-.161.088-.275.088-.341v-.418h-.968c-.58 0-1.001.084-1.265.253-.257.161-.385.407-.385.737a.87.87 0 0 0 .231.627c.154.161.396.242.726.242Zm7.022.869c-.44 0-.822-.103-1.144-.308a2.229 2.229 0 0 1-.759-.847v2.992h-.968v-7.656h.847l.099 1.111c.19-.374.447-.671.77-.891.322-.22.722-.33 1.199-.33.33 0 .645.062.946.187.308.117.575.301.803.55.234.242.418.55.55.924.139.367.209.799.209 1.298 0 .506-.07.946-.209 1.32-.14.367-.327.675-.561.924a2.36 2.36 0 0 1-.814.55 2.705 2.705 0 0 1-.968.176Zm-.143-.869c.506 0 .913-.172 1.221-.517.315-.352.473-.88.473-1.584 0-.689-.158-1.21-.473-1.562-.308-.359-.715-.539-1.221-.539-.25 0-.484.044-.704.132-.213.088-.4.22-.561.396a1.911 1.911 0 0 0-.374.649 2.925 2.925 0 0 0-.132.924c0 .352.044.66.132.924.095.264.22.484.374.66.161.176.348.308.561.396.22.081.454.121.704.121Zm6.059-4.125v4.884h-.968v-4.884h-1.793v-.825h4.587v.825h-1.826ZM142.088 316.749h1.54l2.827 7.887h-1.1l-.814-2.255h-3.487l-.803 2.255h-.968l2.805-7.887Zm2.123 4.697-1.408-3.927-1.408 3.927h2.816Zm3.26-2.519h4.576v5.709h-.968v-4.884h-2.64v4.884h-.968v-5.709Zm9.027 5.819c-.44 0-.822-.103-1.144-.308a2.229 2.229 0 0 1-.759-.847v2.992h-.968v-7.656h.847l.099 1.111c.19-.374.447-.671.77-.891.322-.22.722-.33 1.199-.33.33 0 .645.062.946.187.308.117.575.301.803.55.234.242.418.55.55.924.139.367.209.799.209 1.298 0 .506-.07.946-.209 1.32-.14.367-.327.675-.561.924a2.36 2.36 0 0 1-.814.55 2.705 2.705 0 0 1-.968.176Zm-.143-.869c.506 0 .913-.172 1.221-.517.315-.352.473-.88.473-1.584 0-.689-.158-1.21-.473-1.562-.308-.359-.715-.539-1.221-.539-.25 0-.484.044-.704.132-.213.088-.4.22-.561.396a1.911 1.911 0 0 0-.374.649 2.925 2.925 0 0 0-.132.924c0 .352.044.66.132.924.095.264.22.484.374.66.161.176.348.308.561.396.22.081.454.121.704.121ZM173.19 322.282l2.563-5.533h1.342v7.887h-1.045v-6.347l-2.42 5.137-.517.011h-.462l.011-.011-2.387-5.225v6.435h-.979v-7.887h1.441l2.453 5.533Zm8.954 1.265a3.452 3.452 0 0 1-.253.418 1.923 1.923 0 0 1-.935.671c-.206.073-.448.11-.726.11-.514 0-.928-.143-1.243-.429-.316-.293-.473-.711-.473-1.254 0-.623.216-1.082.649-1.375.44-.293 1.063-.44 1.87-.44h1.067v-.473c0-.396-.103-.678-.308-.847-.206-.169-.558-.253-1.056-.253-.352 0-.686.059-1.001.176-.316.11-.598.238-.847.385v-.869c.205-.125.48-.246.825-.363a3.43 3.43 0 0 1 1.155-.187c.718 0 1.265.15 1.639.451.374.293.561.752.561 1.375v3.3c.007.081.011.165.011.253l.022.253c.007.073.014.136.022.187h-.88a5.068 5.068 0 0 1-.066-.429 6.417 6.417 0 0 1-.022-.495l-.011-.165Zm-1.705.33c.3 0 .557-.062.77-.187a1.92 1.92 0 0 0 .517-.429 1.91 1.91 0 0 0 .286-.484c.058-.161.088-.275.088-.341v-.418h-.968c-.58 0-1.001.084-1.265.253-.257.161-.385.407-.385.737a.87.87 0 0 0 .231.627c.154.161.396.242.726.242Zm6.67-5.709c-.293 0-.55-.037-.77-.11a1.7 1.7 0 0 1-.539-.319 1.453 1.453 0 0 1-.319-.473 1.738 1.738 0 0 1-.099-.594h.968c0 .279.066.48.198.605.139.125.326.187.561.187.235 0 .418-.062.55-.187.132-.125.198-.326.198-.605h.968c0 .418-.143.774-.429 1.067-.279.286-.708.429-1.287.429Zm-1.551 5.148 3.047-4.389h.979v5.709h-.968v-4.378l-3.036 4.378h-.99v-5.709h.968v4.389ZM198.162 323.261l4.334-6.512h1.122v7.887h-1.056v-6.479l-4.312 6.479h-1.122v-7.887h1.034v6.512Zm14.364-1.485c0 .477-.069.898-.209 1.265a2.653 2.653 0 0 1-.561.935c-.234.249-.513.44-.836.572a2.758 2.758 0 0 1-1.056.198c-.352 0-.682-.059-.99-.176a2.453 2.453 0 0 1-.814-.506 2.75 2.75 0 0 1-.561-.836 3.348 3.348 0 0 1-.264-1.122h-.946v2.53h-.968v-5.709h.968v2.354h.968c.044-.396.14-.744.286-1.045.147-.308.334-.565.561-.77.235-.213.499-.374.792-.484a2.8 2.8 0 0 1 .968-.165c.382 0 .734.066 1.056.198.323.132.602.323.836.572.242.249.429.561.561.935a3.5 3.5 0 0 1 .209 1.254Zm-2.662 2.101c.242 0 .462-.04.66-.121.206-.088.382-.216.528-.385.147-.176.261-.396.341-.66.088-.264.132-.576.132-.935 0-.359-.044-.671-.132-.935a1.745 1.745 0 0 0-.341-.649 1.29 1.29 0 0 0-.528-.385 1.607 1.607 0 0 0-.66-.132c-.234 0-.454.044-.66.132-.198.081-.37.209-.517.385a1.9 1.9 0 0 0-.352.649 3.24 3.24 0 0 0-.121.935c0 .359.041.671.121.935.088.264.206.484.352.66.147.169.319.297.517.385.206.081.426.121.66.121Zm7.565-1.771h-2.761v2.53h-.968v-5.709h.968v2.354h2.761v-2.354h.968v5.709h-.968v-2.53Zm6.801.627c0 .33-.058.616-.176.858-.117.242-.282.44-.495.594a2.164 2.164 0 0 1-.759.341c-.293.073-.612.11-.957.11h-1.892v-5.709h.968v1.991h.99c.726 0 1.295.143 1.705.429.411.286.616.748.616 1.386Zm-3.311-.99v2.068h.924c.418 0 .756-.077 1.012-.231.264-.161.396-.425.396-.792 0-.374-.117-.642-.352-.803-.234-.161-.564-.242-.99-.242h-.99ZM230.084 323.261l4.334-6.512h1.122v7.887h-1.056v-6.479l-4.312 6.479h-1.122v-7.887h1.034v6.512Zm14.364-1.485c0 .477-.069.898-.209 1.265a2.653 2.653 0 0 1-.561.935c-.234.249-.513.44-.836.572a2.758 2.758 0 0 1-1.056.198c-.352 0-.682-.059-.99-.176a2.453 2.453 0 0 1-.814-.506 2.75 2.75 0 0 1-.561-.836 3.348 3.348 0 0 1-.264-1.122h-.946v2.53h-.968v-5.709h.968v2.354h.968c.044-.396.14-.744.286-1.045.147-.308.334-.565.561-.77.235-.213.499-.374.792-.484a2.8 2.8 0 0 1 .968-.165c.382 0 .734.066 1.056.198.323.132.602.323.836.572.242.249.429.561.561.935a3.5 3.5 0 0 1 .209 1.254Zm-2.662 2.101c.242 0 .462-.04.66-.121.206-.088.382-.216.528-.385.147-.176.261-.396.341-.66.088-.264.132-.576.132-.935 0-.359-.044-.671-.132-.935a1.745 1.745 0 0 0-.341-.649 1.29 1.29 0 0 0-.528-.385 1.607 1.607 0 0 0-.66-.132c-.234 0-.454.044-.66.132-.198.081-.37.209-.517.385a1.9 1.9 0 0 0-.352.649 3.24 3.24 0 0 0-.121.935c0 .359.041.671.121.935.088.264.206.484.352.66.147.169.319.297.517.385.206.081.426.121.66.121Zm4.115-1.012c.103-.374.169-.88.198-1.518.029-.638.044-1.445.044-2.42h3.839v5.709h-.979v-4.884h-1.947a33.43 33.43 0 0 1-.077 2.09c-.037.609-.121 1.122-.253 1.54-.125.418-.312.737-.561.957-.242.213-.568.319-.979.319h-.088a.543.543 0 0 1-.099-.011v-.957a.783.783 0 0 0 .143.011c.374 0 .627-.279.759-.836Zm9.897-.132c0 .33-.059.616-.176.858-.118.242-.283.44-.495.594a2.18 2.18 0 0 1-.759.341c-.294.073-.613.11-.957.11h-1.892v-5.709h.968v1.991h.99c.726 0 1.294.143 1.705.429.41.286.616.748.616 1.386Zm-3.311-.99v2.068h.924c.418 0 .755-.077 1.012-.231.264-.161.396-.425.396-.792 0-.374-.118-.642-.352-.803-.235-.161-.565-.242-.99-.242h-.99Z" fill="#939393"/><path d="M263.981 316.749h1.749l2.794 7.887h-1.375l-.726-2.068h-3.322l-.726 2.068h-1.177l2.783-7.887Zm2.035 4.675-1.254-3.553-1.254 3.553h2.508Zm3.402-2.497h2.332c1.445 0 2.167.477 2.167 1.43 0 .352-.099.631-.297.836-.191.198-.473.348-.847.451.462.066.807.209 1.034.429.227.22.341.532.341.935 0 .279-.059.521-.176.726a1.418 1.418 0 0 1-.495.506 2.306 2.306 0 0 1-.759.297 4.625 4.625 0 0 1-.99.099h-2.31v-5.709Zm1.265.979v1.353h.935c.308 0 .557-.055.748-.165a.56.56 0 0 0 .286-.506c0-.257-.084-.433-.253-.528-.161-.103-.4-.154-.715-.154h-1.001Zm0 2.255v1.496h.979c.352 0 .634-.051.847-.154.22-.103.33-.293.33-.572 0-.279-.099-.477-.297-.594-.191-.117-.495-.176-.913-.176h-.946Zm4.719-3.234h3.762v1.034h-2.486v4.675h-1.276v-5.709Z" fill="#EBEEF4"/><path d="M293.377 324.746a4.42 4.42 0 0 1-1.595-.275 3.482 3.482 0 0 1-1.232-.792 3.622 3.622 0 0 1-.781-1.276 4.986 4.986 0 0 1-.275-1.705c0-.638.084-1.206.253-1.705.169-.499.418-.92.748-1.265.33-.352.733-.62 1.21-.803.484-.183 1.034-.275 1.65-.275.535 0 1.005.059 1.408.176.403.11.733.242.99.396v.99a3.645 3.645 0 0 0-1.144-.473 5.357 5.357 0 0 0-1.265-.154c-.931 0-1.621.26-2.068.781-.44.513-.66 1.291-.66 2.332 0 1.049.238 1.83.715 2.343.484.513 1.195.77 2.134.77.403 0 .796-.055 1.177-.165.389-.11.759-.297 1.111-.561v.99c-.213.169-.524.323-.935.462-.403.139-.884.209-1.441.209Zm8.316-.594c-.08.059-.179.121-.297.187a3.4 3.4 0 0 1-.429.198 3.59 3.59 0 0 1-.572.143 3.537 3.537 0 0 1-.715.066c-.96 0-1.69-.26-2.189-.781-.498-.521-.748-1.25-.748-2.189 0-.462.066-.876.198-1.243.14-.367.33-.675.572-.924.242-.257.528-.451.858-.583.33-.139.69-.209 1.078-.209.411 0 .778.07 1.1.209.323.139.587.345.792.616.213.271.356.609.429 1.012.081.396.081.858 0 1.386h-4.026c.037.616.22 1.078.55 1.386.33.301.822.451 1.474.451.44 0 .818-.062 1.133-.187.316-.125.58-.26.792-.407v.869Zm-2.266-4.477c-.418 0-.777.128-1.078.385-.3.257-.491.645-.572 1.166h3.069c.03-.528-.091-.917-.363-1.166-.271-.257-.623-.385-1.056-.385Zm7.371 2.431h-2.761v2.53h-.968v-5.709h.968v2.354h2.761v-2.354h.968v5.709h-.968v-2.53Zm4.854-2.354v4.884h-.968v-4.884h-1.793v-.825h4.587v.825h-1.826ZM324.673 324.746a4.136 4.136 0 0 1-1.485-.264 3.41 3.41 0 0 1-1.199-.792 3.745 3.745 0 0 1-.803-1.276c-.191-.506-.286-1.089-.286-1.749 0-.66.095-1.239.286-1.738.198-.506.465-.924.803-1.254.337-.337.737-.59 1.199-.759a4.136 4.136 0 0 1 1.485-.264c.535 0 1.034.088 1.496.264.462.169.861.422 1.199.759.337.337.601.759.792 1.265.19.499.286 1.078.286 1.738 0 .653-.096 1.232-.286 1.738a3.634 3.634 0 0 1-.792 1.276 3.42 3.42 0 0 1-1.199.792 4.169 4.169 0 0 1-1.496.264Zm0-.935c.381 0 .733-.055 1.056-.165.322-.117.601-.297.836-.539.242-.249.429-.572.561-.968.139-.396.209-.876.209-1.441 0-.565-.07-1.045-.209-1.441-.132-.396-.319-.715-.561-.957a2.042 2.042 0 0 0-.836-.539 3.079 3.079 0 0 0-1.056-.176 3.07 3.07 0 0 0-1.056.176 2.12 2.12 0 0 0-.847.539c-.235.242-.422.561-.561.957-.132.396-.198.876-.198 1.441 0 .565.066 1.045.198 1.441.139.396.326.719.561.968.242.242.524.422.847.539.322.11.674.165 1.056.165Zm6.495-1.606h-.506v2.431h-.968v-5.709h.968v2.453h.55l2.002-2.453h1.1l-2.343 2.816 2.387 2.893h-1.177l-2.013-2.431Zm6.508-2.453v4.884h-.968v-4.884h-1.793v-.825h4.587v.825h-1.826Zm8.091 2.024c0 .477-.073.898-.22 1.265a2.697 2.697 0 0 1-.583.935c-.242.249-.532.44-.869.572a2.991 2.991 0 0 1-1.1.198c-.403 0-.774-.066-1.111-.198a2.295 2.295 0 0 1-.869-.627 3.026 3.026 0 0 1-.572-1.056c-.132-.425-.198-.928-.198-1.507 0-.477.015-.931.044-1.364.029-.433.095-.832.198-1.199a3.54 3.54 0 0 1 .44-1.001 2.42 2.42 0 0 1 1.364-.99 4.22 4.22 0 0 1 .594-.132c.205-.029.411-.048.616-.055l.605-.022c.293-.022.539-.059.737-.11.198-.051.374-.121.528-.209v.88a1.685 1.685 0 0 1-.517.22c-.176.037-.392.07-.649.099-.418.037-.803.066-1.155.088-.345.015-.66.095-.946.242a1.705 1.705 0 0 0-.781.924c-.147.403-.238.884-.275 1.441.381-.88 1.1-1.32 2.156-1.32.359 0 .693.066 1.001.198.315.125.587.312.814.561.235.249.418.557.55.924.132.359.198.774.198 1.243Zm-2.772 2.101c.257 0 .491-.04.704-.121.22-.088.411-.216.572-.385.161-.176.286-.396.374-.66.088-.264.132-.576.132-.935 0-.359-.044-.671-.132-.935a1.707 1.707 0 0 0-.374-.649 1.439 1.439 0 0 0-.572-.385 1.824 1.824 0 0 0-.704-.132c-.506 0-.928.169-1.265.506-.33.337-.495.858-.495 1.562 0 .367.044.686.132.957.088.264.209.484.363.66.161.176.348.308.561.396.213.081.447.121.704.121ZM358.111 321.193h-4.048v3.443h-1.034v-7.887h1.034v3.509h4.048v-3.509h1.045v7.887h-1.045v-3.443Zm5.089 3.553c-.388 0-.751-.066-1.089-.198a2.55 2.55 0 0 1-.88-.572 2.798 2.798 0 0 1-.572-.935 3.554 3.554 0 0 1-.209-1.265c0-.469.07-.887.209-1.254.14-.374.33-.686.572-.935.25-.249.543-.44.88-.572a2.967 2.967 0 0 1 1.089-.198c.396 0 .763.066 1.1.198.338.132.627.323.869.572.25.249.444.561.583.935.147.367.22.785.22 1.254 0 .477-.073.898-.22 1.265a2.683 2.683 0 0 1-.583.935c-.242.249-.531.44-.869.572a2.991 2.991 0 0 1-1.1.198Zm0-.869c.257 0 .492-.04.704-.121.22-.088.411-.216.572-.385.162-.176.286-.396.374-.66.088-.264.132-.576.132-.935 0-.359-.044-.671-.132-.935a1.694 1.694 0 0 0-.374-.649 1.439 1.439 0 0 0-.572-.385 1.82 1.82 0 0 0-.704-.132c-.256 0-.491.044-.704.132a1.467 1.467 0 0 0-.561.385 1.788 1.788 0 0 0-.363.649 2.966 2.966 0 0 0-.132.935c0 .359.044.671.132.935.088.264.209.484.363.66.162.169.349.297.561.385.213.081.448.121.704.121Zm3.899-3.102c0-.323.058-.598.176-.825a1.49 1.49 0 0 1 .495-.572c.212-.154.465-.268.759-.341.293-.073.612-.11.957-.11h1.837v5.709h-.968v-2.068h-1.045l-1.463 2.068h-1.155l1.65-2.31c-.396-.117-.704-.297-.924-.539-.213-.242-.319-.579-.319-1.012Zm3.256.968v-1.991h-.869c-.411 0-.748.077-1.012.231-.264.154-.396.403-.396.748 0 .359.117.62.352.781.234.154.568.231 1.001.231h.924Zm7.703.033c0 .477-.073.898-.22 1.265a2.697 2.697 0 0 1-.583.935c-.242.249-.532.44-.869.572a2.991 2.991 0 0 1-1.1.198c-.403 0-.774-.066-1.111-.198a2.295 2.295 0 0 1-.869-.627 3.026 3.026 0 0 1-.572-1.056c-.132-.425-.198-.928-.198-1.507 0-.477.015-.931.044-1.364.029-.433.095-.832.198-1.199a3.54 3.54 0 0 1 .44-1.001 2.42 2.42 0 0 1 1.364-.99 4.22 4.22 0 0 1 .594-.132c.205-.029.411-.048.616-.055l.605-.022c.293-.022.539-.059.737-.11.198-.051.374-.121.528-.209v.88a1.685 1.685 0 0 1-.517.22c-.176.037-.392.07-.649.099-.418.037-.803.066-1.155.088-.345.015-.66.095-.946.242a1.705 1.705 0 0 0-.781.924c-.147.403-.238.884-.275 1.441.381-.88 1.1-1.32 2.156-1.32.359 0 .693.066 1.001.198.315.125.587.312.814.561.235.249.418.557.55.924.132.359.198.774.198 1.243Zm-2.772 2.101c.257 0 .491-.04.704-.121.22-.088.411-.216.572-.385.161-.176.286-.396.374-.66.088-.264.132-.576.132-.935 0-.359-.044-.671-.132-.935a1.707 1.707 0 0 0-.374-.649 1.439 1.439 0 0 0-.572-.385 1.824 1.824 0 0 0-.704-.132c-.506 0-.928.169-1.265.506-.33.337-.495.858-.495 1.562 0 .367.044.686.132.957.088.264.209.484.363.66.161.176.348.308.561.396.213.081.447.121.704.121ZM389.681 323.701h1.012v2.805h-.957l-.11-1.87h-5.665l-.121 1.87h-.935v-2.805h.539c.25-.227.448-.532.594-.913.154-.389.272-.865.352-1.43.081-.565.14-1.228.176-1.991.037-.763.066-1.635.088-2.618h5.027v6.952Zm-1.045 0v-6.006h-3.014a53.887 53.887 0 0 1-.099 2.222 15.65 15.65 0 0 1-.176 1.683 7.203 7.203 0 0 1-.286 1.243c-.11.337-.249.623-.418.858h3.993Zm7.775.451c-.08.059-.179.121-.297.187a3.4 3.4 0 0 1-.429.198 3.59 3.59 0 0 1-.572.143 3.537 3.537 0 0 1-.715.066c-.96 0-1.69-.26-2.189-.781-.498-.521-.748-1.25-.748-2.189 0-.462.066-.876.198-1.243.14-.367.33-.675.572-.924.242-.257.528-.451.858-.583.33-.139.69-.209 1.078-.209.411 0 .778.07 1.1.209.323.139.587.345.792.616.213.271.356.609.429 1.012.081.396.081.858 0 1.386h-4.026c.037.616.22 1.078.55 1.386.33.301.822.451 1.474.451.44 0 .818-.062 1.133-.187.316-.125.58-.26.792-.407v.869Zm-2.266-4.477c-.418 0-.777.128-1.078.385-.3.257-.491.645-.572 1.166h3.069c.03-.528-.091-.917-.363-1.166-.271-.257-.623-.385-1.056-.385Zm5.116 2.53h-.506v2.431h-.968v-5.709h.968v2.453h.55l2.002-2.453h1.1l-2.343 2.816 2.387 2.893h-1.177l-2.013-2.431Z" fill="#939393"/><rect x="45.875" y="207.53" width="20.199" height="96.656" rx="5.213" fill="#EBEEF4"/><rect x="76.499" y="180.536" width="20.199" height="123.65" rx="5.213" fill="#EBEEF4"/><rect x="107.124" y="150.931" width="20.199" height="153.256" rx="5.213" fill="#EBEEF4"/><rect x="137.748" y="190.115" width="20.199" height="114.071" rx="5.213" fill="#EBEEF4"/><rect x="168.372" y="222.333" width="20.199" height="81.853" rx="5.213" fill="#EBEEF4"/><rect x="198.996" y="190.115" width="20.199" height="114.071" rx="5.213" fill="#EBEEF4"/><rect x="229.62" y="180.536" width="20.199" height="123.65" rx="5.213" fill="#EBEEF4"/><rect x="256.987" y="123.937" width="26.063" height="180.25" rx="5.213" fill="#1C89EE"/><rect x="290.869" y="146.575" width="20.199" height="157.61" rx="5.213" fill="#EBEEF4"/><rect x="321.493" y="171.828" width="20.199" height="132.358" rx="5.213" fill="#EBEEF4"/><rect x="352.117" y="207.53" width="20.199" height="96.656" rx="5.213" fill="#EBEEF4"/><rect x="382.741" y="157.895" width="20.199" height="146.29" rx="5.213" fill="#EBEEF4"/><path d="M251.412 74.91a3.91 3.91 0 0 1 3.91-3.91H287.9a3.91 3.91 0 0 1 3.91 3.91v13.08a3.91 3.91 0 0 1-3.91 3.909h-14.334l-2.281 4.789-2.606-4.79h-13.357a3.91 3.91 0 0 1-3.91-3.909V74.91Z" fill="#474646" fill-opacity=".6"/><path d="M262.302 77.471h5.334m0 0v5.334m0-5.334-5.334 5.334-2.666-2.667-4 4" stroke="#14AE5C" stroke-width="2" stroke-linecap="round" stroke-linejoin="round"/><path d="M275.268 82.028c0 .366-.07.696-.209.99-.14.293-.334.546-.583.759-.25.205-.547.363-.891.473a3.75 3.75 0 0 1-1.144.165c-.514 0-.957-.063-1.331-.187-.374-.125-.679-.286-.913-.484v-1.1c.234.234.542.44.924.616.381.168.825.253 1.331.253.542 0 .968-.129 1.276-.385.315-.257.473-.616.473-1.078 0-.44-.14-.781-.418-1.023-.279-.25-.715-.374-1.309-.374h-1.012v-.935h1.056c.418 0 .755-.11 1.012-.33.256-.22.385-.54.385-.957 0-.374-.121-.668-.363-.88-.242-.22-.591-.33-1.045-.33-.47 0-.873.088-1.21.264a4.88 4.88 0 0 0-.902.616v-1.078c.256-.213.561-.385.913-.517a3.43 3.43 0 0 1 1.21-.198c.374 0 .711.051 1.012.154.3.095.553.234.759.418a1.8 1.8 0 0 1 .484.66c.11.249.165.528.165.836 0 .249-.037.473-.11.67a1.823 1.823 0 0 1-.748.891 2.02 2.02 0 0 1-.539.21c.227.036.443.106.649.209.212.102.399.234.561.396.161.154.286.34.374.56.095.213.143.452.143.716Zm5.85-.33c0 .41-.066.784-.198 1.122-.125.33-.308.616-.55.858a2.456 2.456 0 0 1-.869.55 3.251 3.251 0 0 1-1.133.187c-.47 0-.877-.048-1.221-.143a2.88 2.88 0 0 1-.88-.418v-1.078c.249.205.535.381.858.528.33.139.744.209 1.243.209.542 0 .96-.165 1.254-.495.3-.33.451-.763.451-1.298 0-.572-.147-.99-.44-1.254-.294-.264-.664-.396-1.111-.396-.33 0-.594.055-.792.165a1.55 1.55 0 0 0-.44.33h-.803v-4.147h4.268v.946h-3.366v2.255a2.17 2.17 0 0 1 .539-.286c.212-.088.465-.132.759-.132.337 0 .652.055.946.165a2.114 2.114 0 0 1 1.298 1.254c.124.308.187.667.187 1.078Zm1.218 2.717 5.071-8.096h.858l-5.071 8.096h-.858Zm2.552-6.04c0 .353-.04.657-.121.914-.08.256-.19.469-.33.638a1.35 1.35 0 0 1-.484.363c-.183.08-.377.12-.583.12a1.56 1.56 0 0 1-.583-.11 1.458 1.458 0 0 1-.473-.351 1.88 1.88 0 0 1-.319-.616 3.082 3.082 0 0 1-.121-.913c0-.352.041-.657.121-.913.081-.257.187-.47.319-.638a1.3 1.3 0 0 1 .473-.385c.184-.081.378-.121.583-.121.206 0 .4.04.583.12a1.2 1.2 0 0 1 .484.364c.14.161.25.37.33.627.081.249.121.55.121.902Zm-2.178.023c0 .484.055.825.165 1.023.11.19.275.286.495.286a.545.545 0 0 0 .506-.286c.11-.198.165-.54.165-1.023 0-.484-.055-.825-.165-1.023a.541.541 0 0 0-.506-.297.533.533 0 0 0-.495.297c-.11.198-.165.539-.165 1.023Zm6.028 3.938c0 .352-.04.656-.121.913-.08.249-.19.458-.33.627a1.2 1.2 0 0 1-.484.374c-.183.08-.377.12-.583.12a1.56 1.56 0 0 1-.583-.11 1.458 1.458 0 0 1-.473-.351 1.88 1.88 0 0 1-.319-.616 3.082 3.082 0 0 1-.121-.913c0-.352.041-.657.121-.913.081-.257.187-.47.319-.638a1.3 1.3 0 0 1 .473-.385c.184-.081.378-.121.583-.121.206 0 .4.04.583.12.191.074.352.195.484.364.14.161.25.37.33.627.081.249.121.55.121.902Zm-2.167.022c0 .484.052.825.154 1.023.11.19.275.286.495.286.235 0 .404-.096.506-.286.11-.198.165-.54.165-1.023 0-.484-.055-.825-.165-1.023-.102-.198-.271-.297-.506-.297a.533.533 0 0 0-.495.297c-.102.198-.154.539-.154 1.023Z" fill="#fff"/></svg>