<svg width="21" height="20" fill="none" xmlns="http://www.w3.org/2000/svg"><g clip-path="url(#a)"><path d="M.557 0v20h20V0h-20ZM6.41 3.333h1.361c1.019 0 1.368.023 1.39.095.016.055.026 1.139.026 2.415l-.006 2.318.394-.352c.55-.485 1.012-.655 1.888-.687.576-.016.81.006 1.214.15.886.296 1.51.905 1.837 1.803.126.352.143.72.166 3.571l.026 3.187h-2.783v-2.6c0-2.562-.006-2.595-.179-2.907-.244-.414-.508-.603-.924-.648-.71-.078-1.202.163-1.482.743-.133.267-.15.546-.156 2.796-.01 1.374-.026 2.526-.026 2.556-.006.039-.625.061-1.377.061H6.415v-6.25l-.005-6.25Z" fill="#fff"/></g><defs><clipPath id="a"><rect x=".557" width="20" height="20" rx="4" fill="#fff"/></clipPath></defs></svg>