<svg xmlns="http://www.w3.org/2000/svg" width="20" height="20" fill="none"><g clip-path="url(#a)"><path fill="#0077B5" d="M0 2.8A2.8 2.8 0 0 1 2.8 0h14.4A2.8 2.8 0 0 1 20 2.8v14.4a2.8 2.8 0 0 1-2.8 2.8H2.8A2.8 2.8 0 0 1 0 17.2V2.8Z"/><path fill="#fff" d="M7.2 5.4a1.8 1.8 0 1 1-3.6 0 1.8 1.8 0 0 1 3.6 0ZM4 8.4c0-.22.18-.4.4-.4h2c.22 0 .4.18.4.4V16a.4.4 0 0 1-.4.4h-2A.4.4 0 0 1 4 16V8.4ZM8.4 8h1.8c.22 0 .4.18.4.4v.4c.8-1 2.267-1.067 3-1 2.286.208 2.667 2.533 2.6 3.8V16a.4.4 0 0 1-.4.4H14a.4.4 0 0 1-.4-.4v-4.4c-.067-.533-.44-1.6-1.4-1.6s-1.533 1.2-1.6 1.6V16a.4.4 0 0 1-.4.4H8.4A.4.4 0 0 1 8 16V8.4c0-.22.18-.4.4-.4Z"/></g><defs><clipPath id="a"><path fill="#fff" d="M0 0h20v20H0z"/></clipPath></defs></svg>