<svg width="21" height="20" fill="none" xmlns="http://www.w3.org/2000/svg"><g clip-path="url(#a)"><path fill-rule="evenodd" clip-rule="evenodd" d="M6.435.06C7.5.01 7.84 0 10.557 0c2.717 0 3.057.012 4.122.06 1.066.048 1.793.218 2.43.465a4.92 4.92 0 0 1 1.77 1.154c.51.5.902 1.103 1.153 1.77.247.636.416 1.364.465 2.427.05 1.069.06 1.409.06 4.124 0 2.716-.012 3.056-.06 4.123-.048 1.063-.218 1.79-.465 2.427a4.905 4.905 0 0 1-1.153 1.772c-.5.509-1.105.902-1.77 1.152-.637.248-1.365.417-2.428.466-1.067.05-1.407.06-4.124.06-2.716 0-3.056-.012-4.122-.06-1.064-.048-1.791-.218-2.428-.466a4.906 4.906 0 0 1-1.772-1.152 4.902 4.902 0 0 1-1.153-1.771c-.247-.636-.416-1.364-.465-2.427C.568 13.055.557 12.715.557 10c0-2.716.012-3.056.06-4.122.048-1.065.218-1.793.465-2.429a4.905 4.905 0 0 1 1.154-1.77A4.902 4.902 0 0 1 4.006.524C4.643.278 5.37.109 6.434.06Zm8.163 1.8c-1.054-.048-1.37-.058-4.04-.058s-2.987.01-4.042.058c-.975.045-1.504.207-1.857.345-.466.181-.8.397-1.15.747a3.102 3.102 0 0 0-.747 1.15c-.137.353-.3.882-.345 1.857C2.37 7.014 2.36 7.33 2.36 10c0 2.67.01 2.986.058 4.04.045.976.208 1.506.345 1.858.16.434.415.828.747 1.15.323.332.716.588 1.15.748.353.137.882.3 1.857.344 1.055.048 1.37.058 4.041.058 2.671 0 2.987-.01 4.041-.058.976-.044 1.505-.207 1.857-.345.467-.181.8-.397 1.15-.747.332-.322.588-.716.748-1.15.137-.352.3-.882.344-1.857.048-1.055.058-1.371.058-4.041 0-2.67-.01-2.986-.058-4.04-.044-.976-.207-1.505-.344-1.858a3.105 3.105 0 0 0-.748-1.15 3.102 3.102 0 0 0-1.15-.747c-.352-.138-.881-.3-1.857-.345ZM9.28 13.083a3.335 3.335 0 1 0 2.401-6.224 3.336 3.336 0 0 0-2.401 6.224ZM6.923 6.365a5.14 5.14 0 1 1 7.269 7.27 5.14 5.14 0 0 1-7.27-7.27Zm9.914-.74a1.216 1.216 0 1 0-1.67-1.769 1.216 1.216 0 0 0 1.67 1.77Z" fill="#fff"/></g><defs><clipPath id="a"><path fill="#fff" transform="translate(.557)" d="M0 0h20v20H0z"/></clipPath></defs></svg>