<svg width="20" height="20" viewBox="0 0 20 20" fill="none" xmlns="http://www.w3.org/2000/svg">
<path d="M0 2.8C0 1.2536 1.2536 0 2.8 0H17.2C18.7464 0 20 1.2536 20 2.8V17.2C20 18.7464 18.7464 20 17.2 20H2.8C1.2536 20 0 18.7464 0 17.2V2.8Z" fill="#0077B5"/>
<path d="M7.2 5.4C7.2 6.39411 6.39411 7.2 5.4 7.2C4.40589 7.2 3.6 6.39411 3.6 5.4C3.6 4.40589 4.40589 3.6 5.4 3.6C6.39411 3.6 7.2 4.40589 7.2 5.4Z" fill="white"/>
<path d="M4 8.4C4 8.17909 4.17909 8 4.4 8H6.4C6.62091 8 6.8 8.17909 6.8 8.4V16C6.8 16.2209 6.62091 16.4 6.4 16.4H4.4C4.17909 16.4 4 16.2209 4 16V8.4Z" fill="white"/>
<path d="M8.4 8L10.2 8.00001C10.4209 8.00001 10.6 8.1791 10.6 8.40001V8.80001C11.4 7.80001 12.8667 7.73333 13.6 7.79999C15.8861 8.00781 16.2667 10.3333 16.2 11.6L16.2 16C16.2 16.2209 16.0209 16.4 15.8 16.4L14 16.4C13.7791 16.4 13.6 16.2209 13.6 16V11.6C13.5333 11.0667 13.16 10 12.2 10C11.24 10 10.6667 11.2 10.6 11.6V16C10.6 16.2209 10.4209 16.4 10.2 16.4L8.4 16.4C8.17908 16.4 8 16.2209 8 16V8.4C8 8.17909 8.17909 8 8.4 8Z" fill="white"/>
</svg>
