<svg width="24" height="25" viewBox="0 0 24 25" fill="none" xmlns="http://www.w3.org/2000/svg">
<path d="M17.657 17.4641L13.414 21.7071C13.2284 21.8928 13.0081 22.0402 12.7656 22.1407C12.523 22.2412 12.2631 22.293 12.0005 22.293C11.738 22.293 11.478 22.2412 11.2354 22.1407C10.9929 22.0402 10.7726 21.8928 10.587 21.7071L6.343 17.4641C5.22422 16.3452 4.46234 14.9198 4.15369 13.3679C3.84504 11.8161 4.00349 10.2076 4.60901 8.74581C5.21452 7.28403 6.2399 6.03462 7.55548 5.15559C8.87107 4.27655 10.4178 3.80737 12 3.80737C13.5822 3.80737 15.1289 4.27655 16.4445 5.15559C17.7601 6.03462 18.7855 7.28403 19.391 8.74581C19.9965 10.2076 20.155 11.8161 19.8463 13.3679C19.5377 14.9198 18.7758 16.3452 17.657 17.4641V17.4641Z" stroke="#fff" stroke-width="2" stroke-linecap="round" stroke-linejoin="round"/>
<path d="M14.1213 13.9284C14.6839 13.3658 15 12.6028 15 11.8071C15 11.0115 14.6839 10.2484 14.1213 9.68581C13.5587 9.1232 12.7956 8.80713 12 8.80713C11.2044 8.80713 10.4413 9.1232 9.87868 9.68581C9.31607 10.2484 9 11.0115 9 11.8071C9 12.6028 9.31607 13.3658 9.87868 13.9284C10.4413 14.4911 11.2044 14.8071 12 14.8071C12.7956 14.8071 13.5587 14.4911 14.1213 13.9284Z" stroke="#fff" stroke-width="2" stroke-linecap="round" stroke-linejoin="round"/>
</svg>
