<svg width="24" height="25" viewBox="0 0 24 25" fill="none" xmlns="http://www.w3.org/2000/svg">
<path d="M3 8.80713L10.89 14.0671C11.2187 14.2864 11.6049 14.4034 12 14.4034C12.3951 14.4034 12.7813 14.2864 13.11 14.0671L21 8.80713M5 19.8071H19C19.5304 19.8071 20.0391 19.5964 20.4142 19.2213C20.7893 18.8463 21 18.3376 21 17.8071V7.80713C21 7.2767 20.7893 6.76799 20.4142 6.39292C20.0391 6.01784 19.5304 5.80713 19 5.80713H5C4.46957 5.80713 3.96086 6.01784 3.58579 6.39292C3.21071 6.76799 3 7.2767 3 7.80713V17.8071C3 18.3376 3.21071 18.8463 3.58579 19.2213C3.96086 19.5964 4.46957 19.8071 5 19.8071Z" stroke="#939393" stroke-width="2" stroke-linecap="round" stroke-linejoin="round"/>
</svg>
