<svg width="20" height="20" viewBox="0 0 20 20" fill="none" xmlns="http://www.w3.org/2000/svg">
<path d="M10 2.16113C10.5374 1.55183 11.2477 1.12064 12.0362 0.924923C12.8247 0.729208 13.6542 0.778252 14.4142 1.06553C15.1741 1.35281 15.8286 1.8647 16.2905 2.53309C16.7524 3.20148 16.9998 3.99467 16.9998 4.80713C16.9998 5.61959 16.7524 6.41278 16.2905 7.08117C15.8286 7.74956 15.1741 8.26145 14.4142 8.54873C13.6542 8.83601 12.8247 8.88505 12.0362 8.68934C11.2477 8.49362 10.5374 8.06243 10 7.45313M13 18.8071H1V17.8071C1 16.2158 1.63214 14.6897 2.75736 13.5645C3.88258 12.4393 5.4087 11.8071 7 11.8071C8.5913 11.8071 10.1174 12.4393 11.2426 13.5645C12.3679 14.6897 13 16.2158 13 17.8071V18.8071ZM13 18.8071H19V17.8071C19.0001 16.7538 18.723 15.7191 18.1965 14.8068C17.6699 13.8946 16.9125 13.1371 16.0004 12.6103C15.0882 12.0836 14.0535 11.8063 13.0002 11.8063C11.9469 11.8062 10.9122 12.0835 10 12.6101M11 4.80713C11 5.868 10.5786 6.88541 9.82843 7.63556C9.07828 8.3857 8.06087 8.80713 7 8.80713C5.93913 8.80713 4.92172 8.3857 4.17157 7.63556C3.42143 6.88541 3 5.868 3 4.80713C3 3.74626 3.42143 2.72885 4.17157 1.9787C4.92172 1.22856 5.93913 0.80713 7 0.80713C8.06087 0.80713 9.07828 1.22856 9.82843 1.9787C10.5786 2.72885 11 3.74626 11 4.80713Z" stroke="#EBEEF4" stroke-linecap="round" stroke-linejoin="round"/>
</svg>
