<svg width="24" height="25" viewBox="0 0 24 25" fill="none" xmlns="http://www.w3.org/2000/svg">
<path d="M3.58579 4.39292C3.21071 4.76799 3 5.2767 3 5.80713V6.80713C3 15.0911 9.716 21.8071 18 21.8071H19C19.5304 21.8071 20.0391 21.5964 20.4142 21.2213C20.7893 20.8463 21 20.3376 21 19.8071V16.5281C21.0001 16.3182 20.934 16.1135 20.8112 15.9432C20.6885 15.7728 20.5152 15.6455 20.316 15.5791L15.823 14.0811C15.5947 14.0052 15.3466 14.0142 15.1244 14.1064C14.9021 14.1986 14.7205 14.3679 14.613 14.5831L13.483 16.8401C11.0345 15.7338 9.07332 13.7727 7.967 11.3241L10.224 10.1941C10.4393 10.0866 10.6085 9.90503 10.7007 9.68277C10.7929 9.46052 10.8019 9.21247 10.726 8.98413L9.228 4.49113C9.16171 4.29209 9.03449 4.11893 8.86436 3.99618C8.69422 3.87343 8.48979 3.80729 8.28 3.80713H5C4.46957 3.80713 3.96086 4.01784 3.58579 4.39292Z" stroke="#939393" stroke-width="2" stroke-linecap="round" stroke-linejoin="round"/>
</svg>
