<svg width="393" height="211" fill="none" xmlns="http://www.w3.org/2000/svg"><path d="M12.337 23.767v.997c0 .535-.048.987-.144 1.355-.096.368-.233.664-.413.888-.18.225-.396.388-.65.49a2.317 2.317 0 0 1-.853.147c-.251 0-.483-.031-.696-.094a1.65 1.65 0 0 1-.574-.3 1.823 1.823 0 0 1-.43-.548 2.938 2.938 0 0 1-.274-.817 5.885 5.885 0 0 1-.095-1.121v-.997c0-.535.048-.984.144-1.346.099-.362.238-.652.417-.87.18-.222.395-.38.646-.476.255-.096.539-.143.853-.143.254 0 .488.03.7.094a1.58 1.58 0 0 1 1 .82c.12.22.212.487.274.804.063.317.095.69.095 1.117Zm-.835 1.131v-1.27c0-.293-.018-.55-.054-.771a2.426 2.426 0 0 0-.148-.575 1.136 1.136 0 0 0-.251-.386.888.888 0 0 0-.346-.215 1.243 1.243 0 0 0-.435-.072c-.197 0-.372.037-.525.112a.944.944 0 0 0-.386.346c-.102.158-.18.366-.233.623-.054.258-.081.57-.081.938v1.27c0 .293.016.552.05.776.035.225.088.42.156.584.07.161.153.294.252.4a.94.94 0 0 0 .34.233c.132.047.277.071.436.071.203 0 .381-.038.534-.116a.962.962 0 0 0 .381-.364c.105-.167.183-.381.234-.642.05-.263.076-.577.076-.942ZM9.614 87.802v6.534h-.866v-6.534h.866Zm2.28 2.441v4.093h-.83V89.48h.807l.023.763Zm1.516-.79-.004.773a2.092 2.092 0 0 0-.404-.036c-.191 0-.36.03-.507.09-.147.06-.27.143-.372.25a1.21 1.21 0 0 0-.243.387 1.85 1.85 0 0 0-.112.484l-.233.135c0-.293.028-.569.085-.826.06-.257.151-.484.274-.682.122-.2.278-.356.466-.467a1.311 1.311 0 0 1 .889-.148.612.612 0 0 1 .161.04ZM13.246 154.582v.466l-2.706 6.067h-.875l2.702-5.851H8.83v-.682h4.415ZM33.241 204.238v.996c0 .536-.048.988-.144 1.355-.095.368-.233.665-.412.889-.18.224-.397.387-.651.489a2.31 2.31 0 0 1-.853.148c-.251 0-.483-.031-.695-.094a1.648 1.648 0 0 1-.575-.301 1.817 1.817 0 0 1-.43-.547 2.946 2.946 0 0 1-.274-.817 5.887 5.887 0 0 1-.094-1.122v-.996c0-.535.048-.984.143-1.346.099-.362.238-.652.418-.871.18-.221.395-.38.646-.475.254-.096.538-.144.852-.144.255 0 .488.032.7.094a1.579 1.579 0 0 1 1.001.822c.12.218.21.486.274.803.063.317.094.689.094 1.117Zm-.835 1.131v-1.27c0-.293-.018-.55-.053-.772a2.42 2.42 0 0 0-.149-.574 1.133 1.133 0 0 0-.25-.386.873.873 0 0 0-.346-.215 1.238 1.238 0 0 0-.436-.072c-.197 0-.372.037-.525.112a.948.948 0 0 0-.386.345 1.87 1.87 0 0 0-.233.624c-.054.257-.08.57-.08.938v1.27c0 .293.016.552.049.776.036.225.088.419.157.584.069.161.152.294.251.399a.937.937 0 0 0 .341.233c.132.048.277.072.435.072.204 0 .382-.039.534-.117a.96.96 0 0 0 .382-.363c.104-.168.182-.381.233-.642.05-.263.076-.577.076-.942ZM116.177 207.343v.682H111.9v-.596l2.141-2.383c.263-.293.467-.542.61-.745.147-.206.248-.39.305-.552.06-.165.09-.332.09-.503 0-.215-.045-.409-.135-.583a1.006 1.006 0 0 0-.386-.422 1.164 1.164 0 0 0-.619-.157c-.29 0-.532.057-.727.171-.191.11-.335.266-.43.466a1.584 1.584 0 0 0-.144.691h-.83c0-.367.081-.704.242-1.009.162-.305.401-.548.718-.727.317-.183.708-.274 1.171-.274.413 0 .766.073 1.059.22.293.144.518.347.673.61.159.261.238.566.238.916 0 .191-.033.386-.099.583a2.92 2.92 0 0 1-.264.583 4.53 4.53 0 0 1-.391.575 8.568 8.568 0 0 1-.471.556l-1.75 1.898h3.276Zm1.938-2.427-.664-.171.328-3.253h3.352v.767h-2.648l-.197 1.777a2.44 2.44 0 0 1 .453-.193c.186-.06.398-.09.637-.09a2 2 0 0 1 .812.158c.24.101.443.248.611.439.17.192.3.422.39.691.09.27.135.57.135.902 0 .314-.044.603-.13.866a1.934 1.934 0 0 1-.382.691c-.17.195-.386.346-.646.454a2.362 2.362 0 0 1-.911.161c-.263 0-.513-.036-.749-.108a1.926 1.926 0 0 1-.629-.336 1.819 1.819 0 0 1-.448-.566 2.26 2.26 0 0 1-.216-.798h.79c.036.245.108.451.216.619.107.168.248.295.421.381.177.084.382.126.615.126.198 0 .373-.034.525-.103.153-.069.281-.168.386-.296a1.32 1.32 0 0 0 .238-.467c.057-.182.085-.387.085-.615 0-.206-.028-.398-.085-.574a1.302 1.302 0 0 0-.256-.462 1.112 1.112 0 0 0-.408-.305 1.31 1.31 0 0 0-.557-.113c-.278 0-.489.038-.632.113a2.365 2.365 0 0 0-.436.305ZM199.411 204.916l-.664-.171.327-3.253h3.352v.767h-2.647l-.198 1.777c.12-.069.271-.133.454-.193.185-.06.398-.09.637-.09a2 2 0 0 1 .812.158c.239.101.443.248.61.439.171.192.301.422.391.691.089.27.134.57.134.902 0 .314-.043.603-.13.866a1.947 1.947 0 0 1-.381.691 1.72 1.72 0 0 1-.646.454 2.365 2.365 0 0 1-.911.161c-.264 0-.513-.036-.75-.108a1.931 1.931 0 0 1-.628-.336 1.836 1.836 0 0 1-.449-.566 2.28 2.28 0 0 1-.215-.798h.79c.036.245.107.451.215.619.108.168.248.295.422.381.176.084.381.126.615.126.197 0 .372-.034.525-.103a1.06 1.06 0 0 0 .386-.296c.104-.129.184-.284.237-.467.057-.182.086-.387.086-.615 0-.206-.029-.398-.086-.574a1.3 1.3 0 0 0-.255-.462 1.108 1.108 0 0 0-.409-.305 1.305 1.305 0 0 0-.556-.113c-.278 0-.489.038-.633.113-.14.074-.285.176-.435.305Zm8.221-.678v.996c0 .536-.048.988-.144 1.355-.096.368-.233.665-.413.889a1.573 1.573 0 0 1-.65.489 2.316 2.316 0 0 1-.853.148c-.251 0-.483-.031-.696-.094a1.654 1.654 0 0 1-.574-.301 1.832 1.832 0 0 1-.431-.547 2.943 2.943 0 0 1-.273-.817 5.865 5.865 0 0 1-.095-1.122v-.996c0-.535.048-.984.144-1.346.099-.362.238-.652.417-.871.18-.221.395-.38.646-.475.255-.096.539-.144.853-.144.254 0 .488.032.7.094a1.577 1.577 0 0 1 1.001.822c.119.218.211.486.273.803.063.317.095.689.095 1.117Zm-.835 1.131v-1.27c0-.293-.018-.55-.054-.772a2.415 2.415 0 0 0-.148-.574 1.148 1.148 0 0 0-.251-.386.875.875 0 0 0-.346-.215 1.232 1.232 0 0 0-.435-.072c-.197 0-.372.037-.525.112a.947.947 0 0 0-.386.345 1.868 1.868 0 0 0-.233.624c-.054.257-.081.57-.081.938v1.27c0 .293.016.552.049.776.036.225.089.419.157.584.069.161.153.294.252.399a.928.928 0 0 0 .341.233c.131.048.276.072.435.072.203 0 .381-.039.534-.117a.951.951 0 0 0 .381-.363 1.89 1.89 0 0 0 .234-.642c.051-.263.076-.577.076-.942ZM289.058 201.492v.467l-2.706 6.066h-.875l2.701-5.851h-3.536v-.682h4.416Zm1.997 3.424-.664-.171.327-3.253h3.352v.767h-2.647l-.198 1.777a2.47 2.47 0 0 1 .453-.193c.186-.06.398-.09.638-.09.302 0 .572.053.812.158.239.101.443.248.61.439.171.192.301.422.39.691.09.27.135.57.135.902 0 .314-.043.603-.13.866a1.947 1.947 0 0 1-.381.691 1.716 1.716 0 0 1-.647.454 2.362 2.362 0 0 1-.911.161c-.263 0-.513-.036-.749-.108a1.921 1.921 0 0 1-.628-.336 1.821 1.821 0 0 1-.449-.566 2.26 2.26 0 0 1-.215-.798h.789c.036.245.108.451.216.619.108.168.248.295.422.381.176.084.381.126.614.126.198 0 .373-.034.525-.103.153-.069.282-.168.386-.296a1.32 1.32 0 0 0 .238-.467c.057-.182.085-.387.085-.615 0-.206-.028-.398-.085-.574a1.302 1.302 0 0 0-.256-.462 1.096 1.096 0 0 0-.408-.305 1.305 1.305 0 0 0-.556-.113c-.279 0-.489.038-.633.113a2.327 2.327 0 0 0-.435.305ZM371.196 201.456v6.569h-.831v-5.532l-1.673.61v-.75l2.373-.897h.131Zm6.542 2.782v.996c0 .536-.048.988-.144 1.355-.095.368-.233.665-.412.889-.18.224-.397.387-.651.489a2.312 2.312 0 0 1-.853.148c-.251 0-.483-.031-.695-.094a1.65 1.65 0 0 1-.575-.301 1.814 1.814 0 0 1-.43-.547 2.942 2.942 0 0 1-.274-.817 5.872 5.872 0 0 1-.094-1.122v-.996c0-.535.048-.984.143-1.346.099-.362.238-.652.418-.871.179-.221.395-.38.646-.475.254-.096.538-.144.852-.144.255 0 .488.032.7.094.216.06.407.157.575.292.167.132.309.308.426.53.12.218.211.486.274.803.063.317.094.689.094 1.117Zm-.835 1.131v-1.27c0-.293-.018-.55-.053-.772a2.413 2.413 0 0 0-.149-.574 1.118 1.118 0 0 0-.251-.386.878.878 0 0 0-.345-.215 1.242 1.242 0 0 0-.436-.072c-.197 0-.372.037-.525.112a.953.953 0 0 0-.386.345 1.89 1.89 0 0 0-.233.624c-.054.257-.081.57-.081.938v1.27c0 .293.017.552.05.776.036.225.088.419.157.584.069.161.152.294.251.399a.936.936 0 0 0 .341.233c.132.048.277.072.435.072.204 0 .382-.039.534-.117a.96.96 0 0 0 .382-.363c.104-.168.182-.381.233-.642.051-.263.076-.577.076-.942Zm6.004-1.131v.996c0 .536-.047.988-.143 1.355-.096.368-.234.665-.413.889-.18.224-.396.387-.651.489a2.307 2.307 0 0 1-.852.148 2.44 2.44 0 0 1-.696-.094 1.646 1.646 0 0 1-.574-.301 1.817 1.817 0 0 1-.431-.547 2.942 2.942 0 0 1-.274-.817 5.954 5.954 0 0 1-.094-1.122v-.996c0-.535.048-.984.144-1.346.098-.362.238-.652.417-.871.179-.221.395-.38.646-.475a2.4 2.4 0 0 1 .853-.144c.254 0 .487.032.7.094a1.577 1.577 0 0 1 1 .822c.12.218.211.486.274.803.063.317.094.689.094 1.117Zm-.834 1.131v-1.27c0-.293-.018-.55-.054-.772a2.415 2.415 0 0 0-.148-.574 1.148 1.148 0 0 0-.251-.386.875.875 0 0 0-.346-.215 1.24 1.24 0 0 0-.435-.072c-.198 0-.373.037-.525.112a.947.947 0 0 0-.386.345c-.102.159-.18.367-.234.624-.053.257-.08.57-.08.938v1.27c0 .293.016.552.049.776.036.225.088.419.157.584.069.161.153.294.251.399a.944.944 0 0 0 .341.233c.132.048.277.072.436.072.203 0 .381-.039.534-.117a.964.964 0 0 0 .381-.363c.105-.168.183-.381.233-.642.051-.263.077-.577.077-.942Z" fill="#333"/><rect x="29.168" y=".467" width="138.352" height="18.55" rx="7.242" fill="#2F80ED"/><rect x="29.168" y="33.857" width="305.004" height="18.55" rx="7.242" fill="#D45E5E"/><rect x="29.168" y="66.319" width="207.528" height="18.55" rx="7.242" fill="#F6CD52"/><rect x="29.168" y="99.711" width="259.41" height="18.55" rx="7.242" fill="#66C586"/><rect x="29.168" y="133.101" width="169.796" height="18.55" rx="7.242" fill="#738BAA"/><rect x="29.168" y="165.563" width="218.534" height="18.55" rx="7.242" fill="#293544"/><rect x="29.892" y="166.288" width="217.085" height="17.102" rx="6.518" stroke="#000" stroke-opacity=".2" stroke-width="1.448"/><path d="M180.965 9.584v.683h-4.721v-.49l2.926-4.527h.677l-.726 1.31-1.934 3.024h3.778Zm-.911-4.334v6.533h-.83V5.25h.83Zm5.766 2.746v.996c0 .536-.048.987-.144 1.355-.095.368-.233.664-.412.889-.18.224-.397.387-.651.489a2.318 2.318 0 0 1-.853.148 2.44 2.44 0 0 1-.695-.094 1.653 1.653 0 0 1-.575-.3 1.819 1.819 0 0 1-.43-.548 2.931 2.931 0 0 1-.274-.817 5.872 5.872 0 0 1-.094-1.122v-.996c0-.536.048-.984.143-1.346.099-.362.238-.652.418-.87.179-.222.395-.38.646-.476a2.4 2.4 0 0 1 .852-.144c.255 0 .488.031.7.094.216.06.407.157.575.292.167.132.309.308.426.53.12.218.211.486.274.803.063.317.094.69.094 1.117Zm-.835 1.13v-1.27c0-.292-.018-.55-.053-.771a2.419 2.419 0 0 0-.149-.574 1.12 1.12 0 0 0-.251-.386.892.892 0 0 0-.345-.216 1.245 1.245 0 0 0-.436-.071 1.18 1.18 0 0 0-.525.112.949.949 0 0 0-.386.345 1.882 1.882 0 0 0-.233.624c-.054.257-.081.57-.081.938v1.27c0 .293.017.552.05.776.036.224.088.419.157.583.069.162.152.295.251.4a.94.94 0 0 0 .341.233c.132.048.277.072.435.072.204 0 .382-.039.534-.117a.963.963 0 0 0 .382-.363c.104-.168.182-.382.233-.642a5.03 5.03 0 0 0 .076-.942ZM347.448 43.406c0 .398-.092.736-.278 1.014a1.74 1.74 0 0 1-.745.628 2.485 2.485 0 0 1-1.054.216c-.392 0-.745-.072-1.059-.216a1.74 1.74 0 0 1-.745-.628c-.183-.278-.274-.616-.274-1.014 0-.26.049-.498.148-.714.102-.218.244-.408.426-.57a1.96 1.96 0 0 1 .656-.372c.254-.09.534-.135.839-.135.401 0 .758.078 1.072.234.314.152.561.363.741.633.182.269.273.577.273.924Zm-.834-.018a1.29 1.29 0 0 0-.157-.642 1.116 1.116 0 0 0-.44-.44 1.329 1.329 0 0 0-.655-.157c-.255 0-.474.053-.66.157a1.1 1.1 0 0 0-.426.44 1.31 1.31 0 0 0-.153.642c0 .251.05.467.148.646.102.177.246.313.431.408a1.5 1.5 0 0 0 .669.14c.257 0 .478-.047.664-.14.185-.095.327-.231.426-.408.102-.18.153-.395.153-.646Zm.682-3.047c0 .317-.084.603-.252.857a1.741 1.741 0 0 1-.686.601c-.29.147-.619.22-.987.22-.374 0-.708-.073-1.001-.22a1.71 1.71 0 0 1-.682-.6 1.54 1.54 0 0 1-.247-.858c0-.38.082-.703.247-.97a1.63 1.63 0 0 1 .687-.61c.29-.14.62-.21.991-.21.374 0 .706.07.996.21.291.141.518.344.682.61.168.267.252.59.252.97Zm-.83.014c0-.219-.047-.412-.14-.58a1.017 1.017 0 0 0-.385-.394 1.097 1.097 0 0 0-.575-.148c-.218 0-.41.046-.574.139a.966.966 0 0 0-.382.386 1.255 1.255 0 0 0-.134.596c0 .225.045.42.134.588a.994.994 0 0 0 .386.39c.165.093.356.14.575.14.218 0 .408-.047.57-.14a.985.985 0 0 0 .385-.39c.093-.167.14-.363.14-.587Zm6.152 3.05c0 .399-.093.737-.279 1.015-.182.275-.43.485-.744.628a2.493 2.493 0 0 1-1.055.216c-.392 0-.745-.072-1.059-.216a1.745 1.745 0 0 1-.745-.628c-.182-.278-.274-.616-.274-1.014 0-.26.05-.498.149-.714a1.71 1.71 0 0 1 .426-.57c.185-.161.404-.285.655-.372.254-.09.534-.135.839-.135.401 0 .758.078 1.073.234.314.152.56.363.74.633.182.269.274.577.274.924Zm-.835-.017a1.28 1.28 0 0 0-.157-.642 1.11 1.11 0 0 0-.44-.44 1.326 1.326 0 0 0-.655-.157c-.254 0-.474.053-.66.157a1.1 1.1 0 0 0-.426.44 1.31 1.31 0 0 0-.152.642c0 .251.049.467.148.646.101.177.245.313.43.408.189.093.412.14.669.14.257 0 .479-.047.664-.14a.996.996 0 0 0 .426-.408c.102-.18.153-.395.153-.646Zm.682-3.047c0 .317-.084.603-.251.857a1.751 1.751 0 0 1-.687.601c-.29.147-.619.22-.987.22-.374 0-.707-.073-1.001-.22a1.716 1.716 0 0 1-.682-.6 1.547 1.547 0 0 1-.246-.858c0-.38.082-.703.246-.97.168-.266.397-.469.687-.61.29-.14.621-.21.992-.21.373 0 .706.07.996.21.29.141.517.344.682.61.167.267.251.59.251.97Zm-.83.014c0-.219-.046-.412-.139-.58a1.026 1.026 0 0 0-.386-.394 1.096 1.096 0 0 0-.574-.148c-.219 0-.41.046-.575.139a.964.964 0 0 0-.381.386c-.09.167-.135.366-.135.596 0 .225.045.42.135.588a.981.981 0 0 0 .386.39c.164.093.356.14.574.14.218 0 .408-.047.57-.14a.994.994 0 0 0 .386-.39c.093-.167.139-.363.139-.587ZM249.226 71.093h.072v.705h-.072c-.44 0-.808.072-1.104.215-.296.14-.531.33-.704.57-.174.236-.3.503-.377.799a3.66 3.66 0 0 0-.113.902v.96c0 .29.035.547.104.772.068.221.163.408.282.56.12.153.255.269.404.346.153.078.311.117.476.117.191 0 .362-.036.511-.108a1.07 1.07 0 0 0 .377-.31c.105-.134.184-.293.238-.475.054-.183.081-.383.081-.601 0-.195-.024-.382-.072-.561a1.492 1.492 0 0 0-.22-.485 1.043 1.043 0 0 0-.897-.462c-.231 0-.446.057-.646.17a1.47 1.47 0 0 0-.49.44c-.125.18-.197.376-.215.588l-.44-.004c.042-.335.12-.621.234-.857.116-.24.26-.434.43-.584a1.64 1.64 0 0 1 .579-.332c.216-.072.443-.108.682-.108.326 0 .608.062.844.184.236.123.431.288.583.494.153.203.265.434.337.691.075.254.112.516.112.785a2.8 2.8 0 0 1-.13.866c-.087.27-.217.506-.39.71a1.767 1.767 0 0 1-.633.475c-.251.114-.543.17-.875.17-.353 0-.661-.071-.925-.215a1.987 1.987 0 0 1-.655-.583 2.679 2.679 0 0 1-.39-.808 3.183 3.183 0 0 1-.13-.902v-.39c0-.461.046-.913.139-1.355.093-.443.253-.844.48-1.203a2.46 2.46 0 0 1 .956-.857c.407-.213.926-.319 1.557-.319Zm6.085 2.755v.997c0 .535-.048.987-.144 1.355-.096.368-.233.664-.413.888a1.568 1.568 0 0 1-.65.49 2.322 2.322 0 0 1-.853.147c-.251 0-.483-.03-.696-.094a1.659 1.659 0 0 1-.574-.3 1.838 1.838 0 0 1-.431-.548 2.933 2.933 0 0 1-.273-.817 5.866 5.866 0 0 1-.095-1.121v-.996c0-.536.048-.985.144-1.347.099-.362.238-.652.417-.87.18-.222.395-.38.646-.476a2.41 2.41 0 0 1 .853-.144c.254 0 .488.032.7.095a1.58 1.58 0 0 1 1.001.82c.119.22.211.487.273.804.063.317.095.69.095 1.118Zm-.835 1.131v-1.27c0-.293-.018-.55-.054-.771a2.42 2.42 0 0 0-.148-.575 1.148 1.148 0 0 0-.251-.386.89.89 0 0 0-.346-.215 1.235 1.235 0 0 0-.435-.072 1.18 1.18 0 0 0-.525.112.942.942 0 0 0-.386.346 1.86 1.86 0 0 0-.233.624c-.054.257-.081.57-.081.937v1.27c0 .293.016.552.049.777.036.224.089.418.157.583.069.162.153.295.252.4a.93.93 0 0 0 .341.233c.131.047.276.071.435.071.203 0 .381-.039.534-.116a.955.955 0 0 0 .381-.364 1.89 1.89 0 0 0 .234-.641 5.03 5.03 0 0 0 .076-.943ZM302.381 104.493v.467l-2.706 6.066h-.875l2.701-5.851h-3.536v-.682h4.416Zm1.997 3.424-.664-.171.327-3.253h3.352v.767h-2.647l-.198 1.777a2.47 2.47 0 0 1 .453-.193c.186-.06.398-.09.638-.09.302 0 .572.053.812.158.239.101.443.248.61.439.171.192.301.422.39.691.09.27.135.57.135.902 0 .314-.043.603-.13.866a1.947 1.947 0 0 1-.381.691 1.716 1.716 0 0 1-.647.454 2.362 2.362 0 0 1-.911.161c-.263 0-.513-.036-.749-.108a1.921 1.921 0 0 1-.628-.336 1.821 1.821 0 0 1-.449-.566 2.26 2.26 0 0 1-.215-.798h.79c.035.245.107.451.215.619.108.168.248.295.422.381.176.084.381.126.614.126.198 0 .373-.034.525-.103.153-.069.282-.168.386-.296a1.33 1.33 0 0 0 .238-.467c.057-.182.085-.387.085-.615 0-.206-.028-.398-.085-.574a1.302 1.302 0 0 0-.256-.462 1.096 1.096 0 0 0-.408-.305 1.305 1.305 0 0 0-.556-.113c-.279 0-.489.038-.633.113a2.327 2.327 0 0 0-.435.305ZM212.233 142.218v.682h-4.721v-.489l2.926-4.527h.677l-.727 1.31-1.934 3.024h3.779Zm-.911-4.334v6.533h-.83v-6.533h.83Zm2.49 5.837h.086c.478 0 .867-.067 1.166-.201a1.66 1.66 0 0 0 .691-.543c.162-.228.272-.484.332-.768.06-.287.09-.582.09-.884v-1c0-.297-.034-.56-.103-.79a1.724 1.724 0 0 0-.278-.579 1.235 1.235 0 0 0-.4-.355.992.992 0 0 0-.475-.121c-.192 0-.364.039-.516.117-.15.075-.277.181-.382.319a1.512 1.512 0 0 0-.233.484 2.166 2.166 0 0 0-.081.606c0 .194.024.383.072.565.048.183.121.347.22.494.098.147.221.263.368.35.149.084.324.126.525.126.185 0 .359-.036.52-.108.165-.075.31-.175.435-.301a1.491 1.491 0 0 0 .44-.942h.395c0 .248-.049.494-.148.736-.096.239-.23.458-.404.655a2.063 2.063 0 0 1-.61.476 1.69 1.69 0 0 1-.763.175c-.323 0-.603-.063-.839-.189a1.688 1.688 0 0 1-.583-.502 2.303 2.303 0 0 1-.337-.7 2.956 2.956 0 0 1 .023-1.665c.086-.272.215-.512.385-.718.171-.21.382-.373.633-.489.254-.117.548-.175.88-.175.374 0 .692.075.955.224.264.15.478.35.642.601.168.252.29.534.368.849.078.314.117.637.117.969v.3c0 .338-.023.682-.068 1.032a4.1 4.1 0 0 1-.246.997c-.12.317-.295.601-.525.852a2.422 2.422 0 0 1-.902.593c-.368.143-.823.215-1.364.215h-.086v-.705ZM259.652 170.337h.072v.705h-.072c-.44 0-.808.072-1.104.215a1.808 1.808 0 0 0-.704.57c-.174.237-.3.503-.377.799a3.66 3.66 0 0 0-.113.902v.96c0 .29.035.548.104.772.068.221.163.408.282.561.12.152.255.268.404.345.153.078.311.117.476.117.191 0 .362-.036.511-.108.15-.074.276-.178.377-.309.105-.135.184-.293.238-.476a2.11 2.11 0 0 0 .081-.601c0-.195-.024-.382-.072-.561a1.493 1.493 0 0 0-.22-.485 1.05 1.05 0 0 0-.897-.462c-.231 0-.446.057-.646.171-.198.11-.361.257-.49.439-.125.18-.197.376-.215.588l-.44-.004a2.76 2.76 0 0 1 .234-.857c.116-.24.26-.434.43-.584a1.65 1.65 0 0 1 .579-.332 2.14 2.14 0 0 1 .682-.107c.326 0 .608.061.844.184.236.122.431.287.583.493.153.204.265.434.337.691.075.254.112.516.112.785 0 .309-.043.597-.13.866-.087.27-.217.506-.39.709a1.765 1.765 0 0 1-.633.476 2.099 2.099 0 0 1-.875.171c-.353 0-.661-.072-.925-.216a1.983 1.983 0 0 1-.655-.583 2.677 2.677 0 0 1-.39-.808 3.184 3.184 0 0 1-.13-.902v-.39c0-.461.046-.913.139-1.355.093-.443.253-.844.48-1.203.23-.359.549-.645.956-.857.407-.212.926-.319 1.557-.319Zm3.195 2.868h.592c.29 0 .53-.048.718-.144a.984.984 0 0 0 .426-.399c.096-.171.144-.362.144-.575a1.42 1.42 0 0 0-.126-.632.834.834 0 0 0-.377-.386c-.167-.087-.379-.13-.637-.13-.233 0-.439.046-.619.139-.176.09-.316.218-.417.386a1.141 1.141 0 0 0-.148.592h-.831c0-.332.084-.634.252-.906.167-.273.402-.489.704-.651a2.224 2.224 0 0 1 1.059-.242c.395 0 .741.07 1.037.211.296.137.526.344.691.619.164.272.247.612.247 1.018a1.562 1.562 0 0 1-.472 1.05 1.815 1.815 0 0 1-.619.4 2.455 2.455 0 0 1-.915.152h-.709v-.502Zm0 .682v-.498h.709c.416 0 .76.049 1.032.148.272.099.486.23.642.395.158.164.269.345.332.543.065.194.098.389.098.583 0 .305-.052.576-.157.812a1.641 1.641 0 0 1-.435.602 1.87 1.87 0 0 1-.655.372 2.574 2.574 0 0 1-.821.126 2.6 2.6 0 0 1-.803-.122 2.046 2.046 0 0 1-.66-.35 1.632 1.632 0 0 1-.449-.569 1.794 1.794 0 0 1-.161-.777h.83c0 .228.049.427.148.597.102.171.245.304.431.399.188.093.409.14.664.14.254 0 .472-.044.655-.131a.944.944 0 0 0 .426-.403c.102-.18.153-.406.153-.678s-.057-.495-.171-.669a1 1 0 0 0-.484-.39 1.88 1.88 0 0 0-.732-.13h-.592Z" fill="#333"/></svg>