<svg width="24.000000" height="24.000000" viewBox="0 0 24 24" fill="none" xmlns="http://www.w3.org/2000/svg" xmlns:xlink="http://www.w3.org/1999/xlink">
	<desc>
			Created with Pixso.
	</desc>
	<defs>
		<clipPath id="clip2_28129">
			<rect id="receipt-tax" width="24.000000" height="24.000000" fill="white" fill-opacity="0"/>
		</clipPath>
	</defs>
	<rect id="receipt-tax" width="24.000000" height="24.000000" fill="#FFFFFF" fill-opacity="0"/>
	<g clip-path="url(#clip2_28129)">
		<path id="Vector" d="M9 14L15 8M9.5 8.5L9.50999 8.5M14.5 13.5L14.51 13.5M19 5C19 4.46957 18.7893 3.96086 18.4142 3.58578C18.0391 3.21072 17.5304 3 17 3L7 3C6.46957 3 5.96086 3.21072 5.58578 3.58578C5.21071 3.96086 5 4.46957 5 5L5 21L8.5 19L12 21L15.5 19L19 21L19 5ZM9.85355 8.85355C9.75978 8.94732 9.63261 9 9.5 9C9.36739 9 9.24022 8.94732 9.14645 8.85355C9.05267 8.75979 9 8.63261 9 8.5C9 8.36739 9.05267 8.24021 9.14645 8.14645C9.24022 8.05268 9.36739 8 9.5 8C9.63261 8 9.75978 8.05268 9.85355 8.14645C9.94733 8.24021 10 8.36739 10 8.5C10 8.63261 9.94733 8.75979 9.85355 8.85355ZM14.8535 13.8535C14.7598 13.9473 14.6326 14 14.5 14C14.3674 14 14.2402 13.9473 14.1465 13.8535C14.0527 13.7598 14 13.6326 14 13.5C14 13.3674 14.0527 13.2402 14.1465 13.1465C14.2402 13.0527 14.3674 13 14.5 13C14.6326 13 14.7598 13.0527 14.8535 13.1465C14.9473 13.2402 15 13.3674 15 13.5C15 13.6326 14.9473 13.7598 14.8535 13.8535Z" stroke="#939393" stroke-opacity="1.000000" stroke-width="1.000000" stroke-linejoin="round"/>
	</g>
</svg>
