<svg width="20" height="21" viewBox="0 0 20 21" fill="none" xmlns="http://www.w3.org/2000/svg">
<path d="M6.85667 8C7.31417 7.02917 8.54833 6.33333 10 6.33333C11.8417 6.33333 13.3333 7.4525 13.3333 8.83333C13.3333 10 12.2683 10.9792 10.8283 11.2558C10.3767 11.3425 10 11.7058 10 12.1667M10 14.6667H10.0083M17.5 10.5C17.5 11.4849 17.306 12.4602 16.9291 13.3701C16.5522 14.2801 15.9997 15.1069 15.3033 15.8033C14.6069 16.4997 13.7801 17.0522 12.8701 17.4291C11.9602 17.806 10.9849 18 10 18C9.01509 18 8.03982 17.806 7.12987 17.4291C6.21993 17.0522 5.39314 16.4997 4.6967 15.8033C4.00026 15.1069 3.44781 14.2801 3.0709 13.3701C2.69399 12.4602 2.5 11.4849 2.5 10.5C2.5 8.51088 3.29018 6.60322 4.6967 5.1967C6.10322 3.79018 8.01088 3 10 3C11.9891 3 13.8968 3.79018 15.3033 5.1967C16.7098 6.60322 17.5 8.51088 17.5 10.5Z" stroke="#EBEEF4" stroke-linecap="round" stroke-linejoin="round"/>
</svg>
