<svg width="48" height="49" viewBox="0 0 48 49" fill="none" xmlns="http://www.w3.org/2000/svg">
<rect y="0.807129" width="48" height="48" rx="24" fill="#474646" fill-opacity="0.6"/>
<path d="M22 23.8071V29.8071M26 23.8071V29.8071M16 19.8071H32M31 19.8071L30.133 31.9491C30.0971 32.4537 29.8713 32.9259 29.5011 33.2707C29.1309 33.6155 28.6439 33.8071 28.138 33.8071H19.862C19.3561 33.8071 18.8691 33.6155 18.4989 33.2707C18.1287 32.9259 17.9029 32.4537 17.867 31.9491L17 19.8071H31ZM27 19.8071V16.8071C27 16.5419 26.8946 16.2876 26.7071 16.1C26.5196 15.9125 26.2652 15.8071 26 15.8071H22C21.7348 15.8071 21.4804 15.9125 21.2929 16.1C21.1054 16.2876 21 16.5419 21 16.8071V19.8071H27Z" stroke="#939393" stroke-width="2" stroke-linecap="round" stroke-linejoin="round"/>
</svg>
