<svg width="24.000000" height="24.000000" viewBox="0 0 24 24" fill="none" xmlns="http://www.w3.org/2000/svg" xmlns:xlink="http://www.w3.org/1999/xlink">
	<desc>
			Created with Pixso.
	</desc>
	<defs>
		<clipPath id="clip2_28404">
			<rect id="star" width="24.000000" height="24.000000" fill="white" fill-opacity="0"/>
		</clipPath>
	</defs>
	<rect id="star" width="24.000000" height="24.000000" fill="#FFFFFF" fill-opacity="0"/>
	<g clip-path="url(#clip2_28404)">
		<path id="Vector" d="M12.9512 2.92773L14.4702 7.60156C14.5356 7.80078 14.6626 7.97656 14.833 8.09961C15.0039 8.22461 15.209 8.29102 15.4199 8.29102L20.335 8.29102C21.3042 8.29102 21.7061 9.53125 20.9229 10.1016L16.9473 12.9883C16.7764 13.1133 16.6494 13.2891 16.584 13.4883C16.5186 13.6895 16.519 13.9062 16.584 14.1074L18.1021 18.7812C18.4019 19.7031 17.3472 20.4688 16.564 19.8984L12.5879 17.0117C12.417 16.8867 12.2114 16.8203 12 16.8203C11.7891 16.8203 11.583 16.8867 11.4121 17.0117L7.43604 19.8984C6.65332 20.4688 5.59814 19.7012 5.89795 18.7812L7.41602 14.1074C7.48145 13.9062 7.48145 13.6895 7.41602 13.4883C7.35107 13.2891 7.22412 13.1133 7.05322 12.9883L3.07715 10.1016C2.29297 9.53125 2.69727 8.29102 3.66504 8.29102L8.5791 8.29102C8.79004 8.29102 8.99561 8.22461 9.1665 8.09961C9.3374 7.97656 9.46484 7.80078 9.53027 7.60156L11.0493 2.92773C11.3491 2.00586 12.6519 2.00586 12.9512 2.92773Z" stroke="#939393" stroke-opacity="1.000000" stroke-width="1.000000" stroke-linejoin="round"/>
	</g>
</svg>
