<svg width="20" height="20" viewBox="0 0 20 20" fill="none" xmlns="http://www.w3.org/2000/svg">
<path d="M10.951 1.927C10.652 1.006 9.349 1.006 9.049 1.927L7.53 6.601C7.46458 6.80165 7.33735 6.97646 7.16653 7.1004C6.99571 7.22434 6.79005 7.29106 6.579 7.291H1.665C0.697004 7.291 0.293004 8.531 1.077 9.101L5.053 11.989C5.2238 12.1132 5.3509 12.2882 5.41611 12.489C5.48132 12.6899 5.48128 12.9062 5.416 13.107L3.898 17.781C3.598 18.702 4.653 19.469 5.436 18.899L9.412 16.011C9.58289 15.8868 9.78873 15.8199 10 15.8199C10.2113 15.8199 10.4171 15.8868 10.588 16.011L14.564 18.899C15.347 19.469 16.402 18.703 16.102 17.781L14.584 13.107C14.5187 12.9062 14.5187 12.6899 14.5839 12.489C14.6491 12.2882 14.7762 12.1132 14.947 11.989L18.923 9.101C19.706 8.531 19.304 7.291 18.335 7.291H13.42C13.2091 7.29085 13.0037 7.22403 12.8331 7.10011C12.6625 6.97618 12.5354 6.80149 12.47 6.601L10.951 1.927Z" stroke="#939393" stroke-linecap="round" stroke-linejoin="round"/>
</svg>
