<svg width="21" height="20" fill="none" xmlns="http://www.w3.org/2000/svg"><g clip-path="url(#a)"><path d="M10.557 20c5.523 0 10-4.477 10-10s-4.477-10-10-10-10 4.477-10 10 4.477 10 10 10Z" fill="url(#b)"/><path fill-rule="evenodd" clip-rule="evenodd" d="M5.084 9.894c2.915-1.27 4.859-2.107 5.832-2.512 2.777-1.155 3.354-1.355 3.73-1.362.083-.001.268.02.387.116a.421.421 0 0 1 .143.271c.013.078.03.255.017.394-.151 1.581-.802 5.418-1.133 7.19-.14.749-.417 1-.684 1.024-.58.054-1.022-.383-1.584-.752-.88-.577-1.377-.936-2.232-1.499-.987-.65-.347-1.008.216-1.593.147-.153 2.706-2.48 2.755-2.691.006-.026.012-.125-.046-.177-.059-.052-.145-.034-.207-.02-.089.02-1.495.95-4.219 2.788-.399.274-.76.408-1.084.4-.357-.007-1.044-.201-1.554-.367-.627-.204-1.124-.311-1.081-.657.022-.18.27-.364.744-.553Z" fill="#fff"/></g><defs><linearGradient id="b" x1="10.557" y1="0" x2="10.557" y2="19.852" gradientUnits="userSpaceOnUse"><stop stop-color="#2AABEE"/><stop offset="1" stop-color="#229ED9"/></linearGradient><clipPath id="a"><path fill="#fff" transform="translate(.557)" d="M0 0h20v20H0z"/></clipPath></defs></svg>