<svg width="15" height="8" viewBox="0 0 15 8" fill="none" xmlns="http://www.w3.org/2000/svg">
<path d="M5.274 7.5H3.062L0.584 0.233999H2.292L4.238 6.184L6.226 0.233999H7.752L5.274 7.5ZM11.9337 7.64C11.3457 7.64 10.8184 7.556 10.3517 7.388C9.88507 7.21067 9.4884 6.96333 9.16173 6.646C8.83507 6.31933 8.58307 5.92267 8.40573 5.456C8.2284 4.98933 8.13973 4.45733 8.13973 3.86C8.13973 3.272 8.2284 2.74467 8.40573 2.278C8.58307 1.81133 8.83507 1.41933 9.16173 1.102C9.4884 0.775333 9.88973 0.528 10.3657 0.359999C10.8417 0.182666 11.3737 0.0939994 11.9617 0.0939994C12.4657 0.0939994 12.9044 0.149999 13.2777 0.262C13.6604 0.374 13.9637 0.514 14.1877 0.682V2.026C13.8984 1.83933 13.5811 1.69467 13.2357 1.592C12.8997 1.48933 12.5077 1.438 12.0597 1.438C10.5571 1.438 9.80573 2.24533 9.80573 3.86C9.80573 5.47467 10.5431 6.282 12.0177 6.282C12.4937 6.282 12.8997 6.23067 13.2357 6.128C13.5811 6.016 13.8984 5.876 14.1877 5.708V7.052C13.9451 7.21067 13.6417 7.35067 13.2777 7.472C12.9137 7.584 12.4657 7.64 11.9337 7.64Z" fill="#EBEEF4"/>
</svg>
