<svg xmlns="http://www.w3.org/2000/svg" width="15" height="8" fill="none"><path fill="#fff" d="M5.274 7.5H3.062L.584.234h1.708l1.946 5.95L6.226.234h1.526L5.274 7.5Zm6.66.14a4.65 4.65 0 0 1-1.582-.252 3.433 3.433 0 0 1-1.19-.742 3.33 3.33 0 0 1-.756-1.19c-.178-.467-.266-.999-.266-1.596 0-.588.088-1.115.266-1.582A3.162 3.162 0 0 1 10.366.36a4.544 4.544 0 0 1 1.596-.266 4.6 4.6 0 0 1 1.316.168c.382.112.686.252.91.42v1.344a3.678 3.678 0 0 0-.952-.434 4.037 4.037 0 0 0-1.176-.154c-1.503 0-2.254.807-2.254 2.422 0 1.615.737 2.422 2.212 2.422.476 0 .882-.051 1.218-.154.345-.112.662-.252.952-.42v1.344a3.946 3.946 0 0 1-.91.42c-.364.112-.812.168-1.344.168Z"/></svg>