<svg width="24.000000" height="24.000000" viewBox="0 0 24 24" fill="none" xmlns="http://www.w3.org/2000/svg" xmlns:xlink="http://www.w3.org/1999/xlink">
	<desc>
			Created with Pixso.
	</desc>
	<defs>
		<clipPath id="clip2_28389">
			<rect id="view-grid" width="24.000000" height="24.000000" fill="white" fill-opacity="0"/>
		</clipPath>
	</defs>
	<rect id="view-grid" width="24.000000" height="24.000000" fill="#FFFFFF" fill-opacity="0"/>
	<g clip-path="url(#clip2_28389)">
		<path id="Vector" d="M4.58594 4.58594C4.96094 4.21094 5.46973 4 6 4L8 4C8.53027 4 9.03906 4.21094 9.41406 4.58594C9.78906 4.96094 10 5.46875 10 6L10 8C10 8.53125 9.78906 9.03906 9.41406 9.41406C9.03906 9.78906 8.53027 10 8 10L6 10C5.46973 10 4.96094 9.78906 4.58594 9.41406C4.21094 9.03906 4 8.53125 4 8L4 6C4 5.46875 4.21094 4.96094 4.58594 4.58594ZM14.5859 4.58594C14.9609 4.21094 15.4697 4 16 4L18 4C18.5303 4 19.0391 4.21094 19.4141 4.58594C19.7891 4.96094 20 5.46875 20 6L20 8C20 8.53125 19.7891 9.03906 19.4141 9.41406C19.0391 9.78906 18.5303 10 18 10L16 10C15.4697 10 14.9609 9.78906 14.5859 9.41406C14.2109 9.03906 14 8.53125 14 8L14 6C14 5.46875 14.2109 4.96094 14.5859 4.58594ZM4.58594 14.5859C4.96094 14.2109 5.46973 14 6 14L8 14C8.53027 14 9.03906 14.2109 9.41406 14.5859C9.78906 14.9609 10 15.4688 10 16L10 18C10 18.5312 9.78906 19.0391 9.41406 19.4141C9.03906 19.7891 8.53027 20 8 20L6 20C5.46973 20 4.96094 19.7891 4.58594 19.4141C4.21094 19.0391 4 18.5312 4 18L4 16C4 15.4688 4.21094 14.9609 4.58594 14.5859ZM14.5859 14.5859C14.9609 14.2109 15.4697 14 16 14L18 14C18.5303 14 19.0391 14.2109 19.4141 14.5859C19.7891 14.9609 20 15.4688 20 16L20 18C20 18.5312 19.7891 19.0391 19.4141 19.4141C19.0391 19.7891 18.5303 20 18 20L16 20C15.4697 20 14.9609 19.7891 14.5859 19.4141C14.2109 19.0391 14 18.5312 14 18L14 16C14 15.4688 14.2109 14.9609 14.5859 14.5859Z" stroke="#939393" stroke-opacity="1.000000" stroke-width="1.000000" stroke-linejoin="round"/>
	</g>
</svg>
