<svg xmlns="http://www.w3.org/2000/svg" width="445" height="336" fill="none"><path fill="#080716" d="M0 0h445v335.184H0z"/><path fill="url(#a)" d="m80.338 157.677-34.445 35.32V308.96h363.048V90.147l-82.995 59.842a22.126 22.126 0 0 1-25.259.433l-47.556-31.869c-9.973-6.684-23.456-4.195-30.387 5.609l-41.28 58.396c-7.317 10.352-21.82 12.451-31.773 4.599l-39.807-31.403c-8.89-7.014-21.64-6.184-29.546 1.923Z"/><g clip-path="url(#b)" filter="url(#c)"><path stroke="#FBFBFB" stroke-linecap="round" stroke-width="8.195" d="m45.893 192.587 34.445-35.32c7.905-8.107 20.656-8.937 29.546-1.924l39.807 31.404c9.953 7.852 24.456 5.753 31.773-4.599l41.28-58.397c6.931-9.803 20.414-12.292 30.387-5.608l47.556 31.869a22.126 22.126 0 0 0 25.259-.433l82.995-59.842"/></g><defs><linearGradient id="a" x1="227.417" x2="227.417" y1="90.147" y2="308.96" gradientUnits="userSpaceOnUse"><stop stop-color="#9747FF"/><stop offset="1" stop-color="#9747FF" stop-opacity="0"/></linearGradient><clipPath id="b"><path fill="#fff" d="M45.893 90.147h363.048v111.455H45.893z"/></clipPath><filter id="c" width="476.142" height="215.944" x="-10.654" y="33.19" color-interpolation-filters="sRGB" filterUnits="userSpaceOnUse"><feFlood flood-opacity="0" result="BackgroundImageFix"/><feColorMatrix in="SourceAlpha" result="hardAlpha" values="0 0 0 0 0 0 0 0 0 0 0 0 0 0 0 0 0 0 127 0"/><feOffset/><feGaussianBlur stdDeviation="26.225"/><feComposite in2="hardAlpha" operator="out"/><feColorMatrix values="0 0 0 0 0.592157 0 0 0 0 0.278431 0 0 0 0 1 0 0 0 0.32 0"/><feBlend in2="BackgroundImageFix" result="effect1_dropShadow_1656_44936"/><feBlend in="SourceGraphic" in2="effect1_dropShadow_1656_44936" result="shape"/><feColorMatrix in="SourceAlpha" result="hardAlpha" values="0 0 0 0 0 0 0 0 0 0 0 0 0 0 0 0 0 0 127 0"/><feOffset/><feGaussianBlur stdDeviation="2.868"/><feComposite in2="hardAlpha" k2="-1" k3="1" operator="arithmetic"/><feColorMatrix values="0 0 0 0 0.592157 0 0 0 0 0.278431 0 0 0 0 1 0 0 0 1 0"/><feBlend in2="shape" result="effect2_innerShadow_1656_44936"/></filter></defs></svg>