<svg width="24" height="25" viewBox="0 0 24 25" fill="none" xmlns="http://www.w3.org/2000/svg">
<path d="M0 12.02C0 6.5894 0 3.87413 1.68707 2.18707C3.37413 0.5 6.0894 0.5 11.52 0.5H12.48C17.9106 0.5 20.6258 0.5 22.3129 2.18707C24 3.87413 24 6.5894 24 12.02V12.98C24 18.4106 24 21.1258 22.3129 22.8129C20.6258 24.5 17.9106 24.5 12.48 24.5H11.52C6.0894 24.5 3.37413 24.5 1.68707 22.8129C0 21.1258 0 18.4106 0 12.98V12.02Z" fill="url(#paint0_linear_4001_3034)"/>
<path d="M8.83231 17.2908L9.05203 17.3994C9.96763 17.9424 10.993 18.1958 12.0184 18.1958C15.2411 18.1958 17.8779 15.5895 17.8779 12.4042C17.8779 10.8839 17.2553 9.39978 16.1567 8.31383C15.058 7.22789 13.5931 6.61256 12.0184 6.61256C8.79572 6.61256 6.15891 9.21878 6.19555 12.4404C6.19555 13.5263 6.52515 14.576 7.07446 15.4809L7.22093 15.6982L6.63503 17.8338L8.83231 17.2908Z" fill="#31D652"/>
<path d="M16.7792 7.73466C15.5341 6.46778 13.8129 5.78 12.055 5.78C8.31965 5.78 5.31665 8.78439 5.35324 12.4403C5.35324 13.5987 5.68283 14.7208 6.23219 15.7343L5.28 19.1731L8.83231 18.2681C9.82109 18.8111 10.9197 19.0645 12.0184 19.0645C15.7172 19.0645 18.7202 16.0601 18.7202 12.4042C18.7202 10.6305 18.0243 8.96538 16.7792 7.73466ZM12.055 17.9424C11.0662 17.9424 10.0775 17.6891 9.23514 17.1823L9.01543 17.0737L6.89138 17.6166L7.44069 15.5534L7.29422 15.3362C5.68283 12.7662 6.45191 9.36355 9.08867 7.77083C11.7254 6.17817 15.1313 6.93833 16.7426 9.54455C18.354 12.1508 17.5849 15.5172 14.9482 17.1099C14.1058 17.6528 13.0805 17.9424 12.055 17.9424ZM15.2777 13.9245L14.8749 13.7435C14.8749 13.7435 14.289 13.4902 13.9228 13.3092C13.8861 13.3092 13.8495 13.2729 13.8129 13.2729C13.703 13.2729 13.6298 13.3092 13.5565 13.3454C13.5565 13.3454 13.5199 13.3815 13.0072 13.9607C12.9706 14.0331 12.8973 14.0693 12.8241 14.0693H12.7874C12.7509 14.0693 12.6776 14.0331 12.641 13.9969L12.4579 13.9245C12.055 13.7435 11.6888 13.5263 11.3958 13.2368C11.3226 13.1644 11.2127 13.092 11.1395 13.0196C10.8831 12.7662 10.6268 12.4766 10.4437 12.1508L10.407 12.0784C10.3705 12.0422 10.3705 12.006 10.3338 11.9337C10.3338 11.8613 10.3338 11.7889 10.3705 11.7527C10.3705 11.7527 10.5169 11.5717 10.6268 11.4631C10.7 11.3907 10.7366 11.2821 10.8099 11.2097C10.8831 11.1011 10.9198 10.9563 10.8831 10.8477C10.8465 10.6667 10.407 9.68938 10.2972 9.47221C10.2239 9.3636 10.1507 9.32743 10.0409 9.29121H9.63803C9.56474 9.29121 9.49155 9.32743 9.41826 9.32743L9.38162 9.3636C9.30838 9.39982 9.23514 9.47221 9.1619 9.50838C9.08867 9.58082 9.05202 9.65316 8.97878 9.7256C8.72243 10.0514 8.57595 10.4495 8.57595 10.8477C8.57595 11.1373 8.64919 11.4269 8.75907 11.6803L8.79572 11.7889C9.12531 12.4766 9.56474 13.092 10.1507 13.6349L10.2972 13.7797C10.407 13.8883 10.5169 13.9607 10.5902 14.0693C11.3592 14.7209 12.2381 15.1914 13.2269 15.4448C13.3368 15.481 13.4833 15.481 13.5932 15.5172H13.9594C14.1425 15.5172 14.3622 15.4448 14.5087 15.3724C14.6185 15.3 14.6918 15.3 14.765 15.2276L14.8383 15.1552C14.9115 15.0828 14.9848 15.0466 15.058 14.9743C15.1313 14.9019 15.2045 14.8295 15.2411 14.757C15.3144 14.6123 15.351 14.4313 15.3876 14.2503V13.9969C15.3876 13.9969 15.351 13.9607 15.2777 13.9245Z" fill="white"/>
<defs>
<linearGradient id="paint0_linear_4001_3034" x1="12" y1="0.5" x2="12" y2="24.5" gradientUnits="userSpaceOnUse">
<stop stop-color="#42E760"/>
<stop offset="0.765625" stop-color="#29CB4A"/>
</linearGradient>
</defs>
</svg>
