<svg width="21" height="20" fill="none" xmlns="http://www.w3.org/2000/svg"><g clip-path="url(#a)"><path d="M20.159 5.155a2.514 2.514 0 0 0-1.768-1.78c-1.564-.42-7.814-.42-7.814-.42s-6.25 0-7.814.42a2.514 2.514 0 0 0-1.768 1.78C.577 6.725.577 10 .577 10s0 3.275.418 4.845a2.514 2.514 0 0 0 1.768 1.78c1.564.42 7.814.42 7.814.42s6.25 0 7.814-.42a2.514 2.514 0 0 0 1.768-1.78c.418-1.57.418-4.845.418-4.845s0-3.275-.418-4.845Z" fill="#FF0302"/><path d="M8.532 12.974V7.026L13.759 10l-5.227 2.974Z" fill="#FEFEFE"/></g><defs><clipPath id="a"><path fill="#fff" transform="translate(.557)" d="M0 0h20v20H0z"/></clipPath></defs></svg>